<svg width="330" height="373" viewBox="0 0 330 373" fill="none" xmlns="http://www.w3.org/2000/svg">
<g opacity="0.2">
<path d="M39.1998 233.334L52.4675 221.009L64.9989 235.157L51.7312 247.482L39.1998 233.334Z" fill="#D48432"/>
<path d="M267.726 144.849L270.227 126.681L288.693 129.355L286.191 147.522L267.726 144.849Z" fill="#D48432"/>
<path d="M284.349 368.195L269.251 358.313L279.288 342.222L294.387 352.104L284.349 368.195Z" fill="#D48432"/>
<path d="M110.804 318.093L111.893 299.779L130.506 300.946L129.418 319.26L110.804 318.093Z" fill="#EC981B"/>
<path d="M-5.34782 132.605L2.87986 116.309L19.4452 125.086L11.2175 141.382L-5.34782 132.605Z" fill="#D48432"/>
<path d="M242.184 243.489L237.579 228.695L252.613 223.792L257.217 238.586L242.184 243.489Z" fill="#D48432"/>
<path d="M283.47 130.735L290.432 116.946L304.449 124.372L297.487 138.161L283.47 130.735Z" fill="#EC981B"/>
<path d="M278.341 347.663L268.982 335.446L281.396 325.474L290.754 337.691L278.341 347.663Z" fill="#EC981B"/>
<path d="M111.668 262.949L113.785 247.576L129.41 249.838L127.293 265.211L111.668 262.949Z" fill="#EC981B"/>
<path d="M329.538 149.87C326.2 149.895 323.468 147.139 323.442 143.72C323.416 140.301 326.106 137.504 329.445 137.479C332.783 137.454 335.515 140.209 335.541 143.629C335.567 147.048 332.877 149.845 329.538 149.87Z" fill="#EC981B"/>
<path d="M314.457 312.699C313.094 315.82 309.513 317.219 306.465 315.822C303.417 314.425 302.049 310.757 303.412 307.636C304.775 304.515 308.357 303.115 311.405 304.512C314.452 305.91 315.82 309.578 314.457 312.699Z" fill="#EC981B"/>
<path d="M213.998 368.339C210.338 368.367 207.344 365.346 207.315 361.598C207.287 357.85 210.235 354.784 213.895 354.757C217.555 354.729 220.549 357.75 220.577 361.498C220.606 365.246 217.657 368.311 213.998 368.339Z" fill="#EC981B"/>
<path d="M18.7892 326.133C15.4505 326.158 12.7188 323.402 12.693 319.983C12.6672 316.564 15.357 313.767 18.6957 313.742C22.0344 313.716 24.766 316.472 24.7919 319.891C24.8177 323.311 22.1279 326.107 18.7892 326.133Z" fill="#EC981B"/>
<path d="M177.403 101.894C174.065 101.919 171.333 99.1638 171.307 95.7445C171.281 92.3252 173.971 89.5286 177.31 89.5034C180.648 89.4782 183.38 92.2339 183.406 95.6532C183.432 99.0725 180.742 101.869 177.403 101.894Z" fill="#D48432"/>
<path d="M46.3589 362.832L45.0361 354.457L53.5471 353.05L54.8699 361.425L46.3589 362.832Z" stroke="#EC981B" stroke-width="8.64193"/>
</g>
</svg>
