<svg width="184" height="184" viewBox="0 0 184 184" fill="none" xmlns="http://www.w3.org/2000/svg">
<g opacity="0.96802">
<path d="M92 2.79437C141.232 2.79437 181.206 42.7677 181.206 92C181.206 141.232 141.232 181.206 92 181.206C42.7677 181.206 2.79437 141.232 2.79437 92C2.79437 42.7677 42.7677 2.79437 92 2.79437Z" fill="#FDD8A0" stroke="#EEEEEE" stroke-width="1.58873"/>
<path d="M92 2C141.671 2 182 42.329 182 92C182 141.671 141.671 182 92 182C42.329 182 2 141.671 2 92C2 42.329 42.329 2 92 2Z" stroke="#EEEEEE" stroke-width="3.17746"/>
</g>
<path d="M92 7C138.912 7 177 45.0885 177 92C177 138.912 138.912 177 92 177C45.0885 177 7 138.912 7 92C7 45.0885 45.0885 7 92 7Z" fill="#EC981B"/>
<path d="M99.1922 50.9466C99.3154 46.8816 96.0536 43.5195 91.9868 43.5195C87.8776 43.5195 84.5996 46.9493 84.7855 51.0543L87.491 110.8C87.6132 113.498 89.8761 115.6 92.5758 115.523C95.1946 115.448 97.3013 113.345 97.3807 110.726L99.1922 50.9466Z" fill="#EEEEEE"/>
<path d="M97.6218 133.424C97.6218 130.618 95.3398 128.347 92.5341 128.362C89.6634 128.376 87.3792 130.773 87.5023 133.641L87.529 134.262C87.6449 136.964 89.8689 139.094 92.5731 139.094C95.3614 139.094 97.6218 136.834 97.6218 134.046V133.424Z" fill="#EEEEEE"/>
</svg>
