<svg width="30" height="31" viewBox="0 0 30 31" fill="none" xmlns="http://www.w3.org/2000/svg">
<path d="M30 15.1215C30 6.77121 23.1146 -3.0097e-07 14.6204 -6.72265e-07C7.82513 -9.69294e-07 2.06009 4.33276 0.0264335 10.341C-0.115937 11.0967 0.360069 11.3742 0.76629 11.3742C1.13304 11.3742 2.34457 11.3601 3.62971 11.3536C2.69935 7.14682 5.44434 6.25913 5.44434 6.25913C7.22203 5.57127 7.69473 4.58016 7.69473 4.58016C8.64929 3.20819 8.62967 4.68358 8.62967 4.68358C8.52143 6.20204 7.04477 7.00158 7.04477 7.00158C4.69352 8.35026 5.37328 10.5391 5.76626 11.402C6.76004 11.5377 7.43903 11.9296 7.82284 12.362C8.21174 9.00332 9.5305 5.47261 15.4236 5.47261C17.1028 5.47261 18.4748 6.06331 19.5518 7.03063C19.9395 6.87362 21.5035 6.35604 23.6219 7.17712C23.6219 7.17712 24.0353 8.44692 22.0454 11.3366C22.3862 12.5428 22.5571 13.8364 22.563 15.1215C22.5571 16.4066 22.3862 17.7011 22.0454 18.9096C24.0353 21.7958 23.6219 23.0638 23.6219 23.0638C21.5035 23.8869 19.9395 23.3691 19.5518 23.2121C18.4748 24.1816 17.1028 24.7683 15.4236 24.7683C9.51649 24.7683 8.21581 21.2309 7.83506 17.8637C7.35778 18.406 6.42182 18.8893 4.98692 18.8893C2.92933 18.8893 1.27311 18.8718 0.76629 18.8718C0.357011 18.8718 -0.122558 19.144 0.0284701 19.9105C2.06442 25.9154 7.82742 30.2427 14.6204 30.2427C23.1146 30.2427 30 23.4725 30 15.1215Z" fill="#808191"/>
</svg>
