<svg width="28" height="27" viewBox="0 0 28 27" fill="none" xmlns="http://www.w3.org/2000/svg">
<path d="M27.4205 13.0622L14.6986 0.290867C14.607 0.198663 14.4982 0.125512 14.3784 0.0756014C14.2586 0.0256906 14.1302 0 14.0006 0C13.8709 0 13.7425 0.0256906 13.6227 0.0756014C13.503 0.125512 13.3942 0.198663 13.3026 0.290867L0.580655 13.0622C0.210024 13.4346 0 13.9403 0 14.4678C0 15.5631 0.886425 16.4536 1.9767 16.4536H3.31715V25.5667C3.31715 26.1159 3.75881 26.5597 4.30549 26.5597H12.0239V19.6093H15.4831V26.5597H23.6957C24.2423 26.5597 24.684 26.1159 24.684 25.5667V16.4536H26.0245C26.5495 16.4536 27.053 16.2458 27.4236 15.8703C28.1926 15.0946 28.1926 13.8379 27.4205 13.0622Z" fill="white"/>
</svg>
