<svg width="184" height="184" viewBox="0 0 184 184" fill="none" xmlns="http://www.w3.org/2000/svg">
<g opacity="0.96802">
<path d="M92 2.79437C141.232 2.79437 181.206 42.7677 181.206 92C181.206 141.232 141.232 181.206 92 181.206C42.7677 181.206 2.79437 141.232 2.79437 92C2.79437 42.7677 42.7677 2.79437 92 2.79437Z" fill="#6A7C8E" stroke="#EEEEEE" stroke-width="1.58873"/>
<path d="M92 2C141.671 2 182 42.329 182 92C182 141.671 141.671 182 92 182C42.329 182 2 141.671 2 92C2 42.329 42.329 2 92 2Z" stroke="#EEEEEE" stroke-width="3.17746"/>
</g>
<path d="M92 7C138.912 7 177 45.0885 177 92C177 138.912 138.912 177 92 177C45.0885 177 7 138.912 7 92C7 45.0885 45.0885 7 92 7Z" fill="#2C3D4F"/>
<path d="M92.3556 48C67.8468 48 48 67.8912 48 92.4C48 116.909 67.8468 136.8 92.3556 136.8C116.909 136.8 136.8 116.909 136.8 92.4C136.8 67.8912 116.909 48 92.3556 48ZM123.125 74.64H110.027C108.606 69.09 106.564 63.762 103.9 58.8336C112.069 61.6308 118.862 67.314 123.125 74.64ZM92.4 57.0576C96.0852 62.3856 98.9712 68.2908 100.88 74.64H83.9196C85.8288 68.2908 88.7148 62.3856 92.4 57.0576ZM58.0344 101.28C57.324 98.4384 56.88 95.4636 56.88 92.4C56.88 89.3364 57.324 86.3616 58.0344 83.52H73.0416C72.6864 86.4504 72.42 89.3808 72.42 92.4C72.42 95.4192 72.6864 98.3496 73.0416 101.28H58.0344ZM61.6752 110.16H74.7732C76.194 115.71 78.2364 121.038 80.9004 125.966C72.7308 123.169 65.9376 117.53 61.6752 110.16ZM74.7732 74.64H61.6752C65.9376 67.2696 72.7308 61.6308 80.9004 58.8336C78.2364 63.762 76.194 69.09 74.7732 74.64ZM92.4 127.742C88.7148 122.414 85.8288 116.509 83.9196 110.16H100.88C98.9712 116.509 96.0852 122.414 92.4 127.742ZM102.79 101.28H82.0104C81.6108 98.3496 81.3 95.4192 81.3 92.4C81.3 89.3808 81.6108 86.406 82.0104 83.52H102.79C103.189 86.406 103.5 89.3808 103.5 92.4C103.5 95.4192 103.189 98.3496 102.79 101.28ZM103.9 125.966C106.564 121.038 108.606 115.71 110.027 110.16H123.125C118.862 117.486 112.069 123.169 103.9 125.966ZM111.758 101.28C112.114 98.3496 112.38 95.4192 112.38 92.4C112.38 89.3808 112.114 86.4504 111.758 83.52H126.766C127.476 86.3616 127.92 89.3364 127.92 92.4C127.92 95.4636 127.476 98.4384 126.766 101.28H111.758Z" fill="#F72D2D"/>
<path d="M57.6562 127.084L128.083 56.6572L57.6562 127.084Z" fill="#EC981B"/>
<path d="M57.6562 127.084L128.083 56.6572" stroke="#222831" stroke-width="9" stroke-linecap="round"/>
</svg>
