<svg width="184" height="184" viewBox="0 0 184 184" fill="none" xmlns="http://www.w3.org/2000/svg">
<g opacity="0.96802">
<path d="M92 2.79437C141.232 2.79437 181.206 42.7677 181.206 92C181.206 141.232 141.232 181.206 92 181.206C42.7677 181.206 2.79437 141.232 2.79437 92C2.79437 42.7677 42.7677 2.79437 92 2.79437Z" fill="#6A7C8E" stroke="#EEEEEE" stroke-width="1.58873"/>
<path d="M92 2C141.671 2 182 42.329 182 92C182 141.671 141.671 182 92 182C42.329 182 2 141.671 2 92C2 42.329 42.329 2 92 2Z" stroke="#EEEEEE" stroke-width="3.17746"/>
</g>
<path d="M92 7C138.912 7 177 45.0885 177 92C177 138.912 138.912 177 92 177C45.0885 177 7 138.912 7 92C7 45.0885 45.0885 7 92 7Z" fill="#2C3D4F"/>
<path opacity="0.3" d="M91.7555 56C97.1391 56.0523 102.199 56.6282 107.183 57.855C115.868 59.9932 123.757 63.7863 130.858 69.2168C134.547 72.0378 137.888 75.2284 140.874 78.7861C142.27 80.4489 142.374 82.6709 141.151 84.415C139.981 86.0825 137.825 86.7222 135.822 86.012C134.794 85.6477 134.121 84.8629 133.441 84.0763C129.962 80.0562 125.985 76.612 121.511 73.7411C117.132 70.9318 112.45 68.7866 107.46 67.3185C101.261 65.4945 94.9355 64.7857 88.483 65.1996C83.2245 65.5368 78.1187 66.5993 73.1782 68.4254C64.4305 71.6588 56.9801 76.7893 50.8112 83.7856C50.1407 84.5462 49.5335 85.37 48.572 85.838C45.8016 87.1864 42.5487 85.525 42.0629 82.489C41.8371 81.077 42.2245 79.8459 43.136 78.7583C46.2556 75.0363 49.7708 71.7293 53.6507 68.8159C58.2924 65.3304 63.3205 62.527 68.7291 60.4096C73.2191 58.6518 77.8504 57.4257 82.6164 56.7077C85.7308 56.2385 88.8673 56.0461 91.7555 56Z" fill="#EEEEEE"/>
<path opacity="0.3" d="M93.0931 74.2754C100.659 74.3293 108.693 76.5871 116.065 81.1509C120.168 83.6902 123.765 86.8171 126.874 90.5047C128.54 92.4815 128.357 95.2675 126.464 96.9028C124.521 98.5814 121.695 98.3972 119.996 96.4293C117.847 93.9401 115.462 91.7215 112.757 89.8479C109.208 87.3899 105.35 85.6122 101.172 84.5214C96.8626 83.3964 92.4944 83.0626 88.0713 83.5475C83.1264 84.0897 78.4768 85.5773 74.1374 88.0196C70.2447 90.2106 66.8849 93.04 63.9823 96.4304C62.8817 97.7159 61.4471 98.2397 59.7768 97.9562C58.0092 97.6563 56.7859 96.6298 56.2169 94.9274C55.6937 93.3617 55.9573 91.8714 57.0237 90.6083C63.0142 83.5135 70.4735 78.656 79.3862 76.0485C83.4458 74.8609 87.7823 74.2724 93.0931 74.2754Z" fill="#EEEEEE"/>
<path d="M92.7981 92.5176C100.408 92.7151 107.441 95.8766 112.941 102.3C114.561 104.192 114.329 107.05 112.482 108.626C110.537 110.284 107.715 110.106 106.039 108.191C104.717 106.681 103.251 105.347 101.537 104.293C93.8522 99.5693 83.8601 101.182 78.0451 108.088C76.7801 109.59 74.697 110.157 72.9343 109.478C71.0798 108.764 69.8946 107.007 69.9675 105.049C70.0039 104.065 70.3125 103.159 70.946 102.403C74.3269 98.3667 78.518 95.5192 83.5242 93.8749C86.2761 92.971 89.1026 92.5468 92.7981 92.5176Z" fill="#2C3D4F"/>
<path d="M92.7981 92.5176C100.408 92.7151 107.441 95.8766 112.941 102.3C114.561 104.192 114.329 107.05 112.482 108.626C110.537 110.284 107.715 110.106 106.039 108.191C104.717 106.681 103.251 105.347 101.537 104.293C93.8522 99.5693 83.8601 101.182 78.0451 108.088C76.7801 109.59 74.697 110.157 72.9343 109.478C71.0798 108.764 69.8946 107.007 69.9675 105.049C70.0039 104.065 70.3125 103.159 70.946 102.403C74.3269 98.3667 78.518 95.5192 83.5242 93.8749C86.2761 92.971 89.1026 92.5468 92.7981 92.5176Z" fill="#2C3D4F"/>
<path d="M101.089 119.916C101.08 124.948 97.0095 128.978 91.9476 128.966C86.9351 128.954 82.8811 124.885 82.8911 119.876C82.9013 114.836 86.9706 110.76 91.9882 110.765C97.0444 110.769 101.098 114.845 101.089 119.916Z" fill="#2C3D4F"/>
<path d="M101.089 119.916C101.08 124.948 97.0095 128.978 91.9476 128.966C86.9351 128.954 82.8811 124.885 82.8911 119.876C82.9013 114.836 86.9706 110.76 91.9882 110.765C97.0444 110.769 101.098 114.845 101.089 119.916Z" fill="#2CDA94"/>
<g opacity="0.833675">
<path d="M92.7981 92.5176C100.408 92.7151 107.441 95.8766 112.941 102.3C114.561 104.192 114.329 107.05 112.482 108.626C110.537 110.284 107.715 110.106 106.039 108.191C104.717 106.681 103.251 105.347 101.537 104.293C93.8522 99.5693 83.8601 101.182 78.0451 108.088C76.7801 109.59 74.697 110.157 72.9343 109.478C71.0798 108.764 69.8946 107.007 69.9675 105.049C70.0039 104.065 70.3125 103.159 70.946 102.403C74.3269 98.3667 78.518 95.5192 83.5242 93.8749C86.2761 92.971 89.1026 92.5468 92.7981 92.5176Z" fill="#2CDA94"/>
</g>
</svg>
