<svg width="184" height="184" viewBox="0 0 184 184" fill="none" xmlns="http://www.w3.org/2000/svg">
<g opacity="0.96802">
<path d="M92 2.79437C141.232 2.79437 181.206 42.7677 181.206 92C181.206 141.232 141.232 181.206 92 181.206C42.7677 181.206 2.79437 141.232 2.79437 92C2.79437 42.7677 42.7677 2.79437 92 2.79437Z" fill="#C7F1E0" stroke="#EEEEEE" stroke-width="1.58873"/>
<path d="M92 2C141.671 2 182 42.329 182 92C182 141.671 141.671 182 92 182C42.329 182 2 141.671 2 92C2 42.329 42.329 2 92 2Z" stroke="#EEEEEE" stroke-width="3.17746"/>
</g>
<path d="M91.9964 7.9043C138.479 7.9043 176.22 45.6451 176.22 92.1277C176.22 138.61 138.479 176.351 91.9964 176.351C45.5138 176.351 7.77295 138.61 7.77295 92.1277C7.77295 45.6451 45.5138 7.9043 91.9964 7.9043Z" fill="#2CDA94" stroke="#EEEEEE" stroke-width="1.5"/>
<path d="M52.3906 95.5557L77.1145 119.8L127.042 68.1914" stroke="#EEEEEE" stroke-width="10" stroke-linecap="round" stroke-linejoin="round"/>
</svg>
