<svg width="330" height="372" viewBox="0 0 330 372" fill="none" xmlns="http://www.w3.org/2000/svg">
<g opacity="0.2">
<path d="M38.1988 232.334L51.4665 220.009L63.9979 234.157L50.7302 246.482L38.1988 232.334Z" fill="#D48432"/>
<path d="M266.726 143.849L269.228 125.681L287.693 128.355L285.192 146.522L266.726 143.849Z" fill="#D48432"/>
<path d="M283.35 367.195L268.251 357.313L278.289 341.222L293.388 351.104L283.35 367.195Z" fill="#D48432"/>
<path d="M109.804 317.093L110.893 298.779L129.506 299.946L128.418 318.26L109.804 317.093Z" fill="#2CDA94"/>
<path d="M-6.34684 131.605L1.88084 115.309L18.4462 124.086L10.2185 140.382L-6.34684 131.605Z" fill="#D48432"/>
<path d="M241.182 242.489L236.577 227.695L251.611 222.792L256.216 237.586L241.182 242.489Z" fill="#D48432"/>
<path d="M282.471 129.735L289.433 115.946L303.45 123.372L296.488 137.161L282.471 129.735Z" fill="#2CDA94"/>
<path d="M277.342 346.663L267.984 334.446L280.397 324.474L289.756 336.691L277.342 346.663Z" fill="#2CDA94"/>
<path d="M110.668 261.949L112.785 246.576L128.41 248.838L126.293 264.211L110.668 261.949Z" fill="#2CDA94"/>
<path d="M328.539 148.87C325.2 148.895 322.469 146.139 322.443 142.72C322.417 139.301 325.107 136.504 328.445 136.479C331.784 136.454 334.516 139.209 334.542 142.629C334.567 146.048 331.878 148.845 328.539 148.87Z" fill="#2CDA94"/>
<path d="M313.458 311.699C312.095 314.82 308.513 316.219 305.466 314.822C302.418 313.425 301.05 309.757 302.413 306.636C303.776 303.515 307.357 302.115 310.405 303.512C313.453 304.91 314.821 308.578 313.458 311.699Z" fill="#2CDA94"/>
<path d="M212.998 367.339C209.338 367.367 206.344 364.346 206.315 360.598C206.287 356.85 209.235 353.784 212.895 353.757C216.555 353.729 219.549 356.75 219.577 360.498C219.606 364.246 216.657 367.311 212.998 367.339Z" fill="#2CDA94"/>
<path d="M17.7902 325.132C14.4515 325.157 11.7198 322.401 11.694 318.982C11.6682 315.563 14.358 312.766 17.6967 312.741C21.0353 312.715 23.767 315.471 23.7928 318.89C23.8186 322.31 21.1289 325.106 17.7902 325.132Z" fill="#2CDA94"/>
<path d="M176.403 100.894C173.065 100.919 170.333 98.1638 170.307 94.7445C170.281 91.3252 172.971 88.5286 176.31 88.5034C179.649 88.4782 182.38 91.2339 182.406 94.6532C182.432 98.0725 179.742 100.869 176.403 100.894Z" fill="#D48432"/>
<path d="M45.3598 361.832L44.0371 353.457L52.5481 352.05L53.8708 360.425L45.3598 361.832Z" stroke="#2CDA94" stroke-width="8.64193"/>
</g>
</svg>
