<svg width="30" height="31" viewBox="0 0 30 31" fill="none" xmlns="http://www.w3.org/2000/svg">
<path fill-rule="evenodd" clip-rule="evenodd" d="M30 15.4258C30 7.14151 23.2843 0.425781 15 0.425781C6.71573 0.42578 -2.93554e-07 7.14151 -6.55671e-07 15.4258C-1.01779e-06 23.7101 6.71573 30.4258 15 30.4258C23.2843 30.4258 30 23.7101 30 15.4258ZM17.2888 15.008L17.8079 14.9765C19.1531 14.8821 20.3819 15.711 20.8585 17.0225C21.028 17.5051 21.0492 18.3235 20.9009 18.8586C20.8373 19.0685 20.6255 19.4672 20.4348 19.7505L20.0853 20.2646L20.2653 20.8312C20.3607 21.1459 20.5196 21.5656 20.6255 21.7545C20.7208 21.9329 20.7738 22.0902 20.742 22.0902C20.5619 22.0902 19.9476 21.702 19.6086 21.3768C19.1319 20.9361 19.0896 21.062 19.4073 21.9538C19.5874 22.4889 19.5874 22.4994 19.3862 22.3945C19.2802 22.3316 18.9095 22.0063 18.5705 21.6601C17.9879 21.0725 17.9244 21.041 17.4371 21.041C16.6851 21.041 15.1174 20.6843 14.2594 20.3275C12.6493 19.6665 10.9863 18.2501 10.1495 16.8336C8.9737 14.8401 8.67711 12.1856 9.36563 9.95077C9.59866 9.20583 10.1918 7.92578 10.2978 7.92578C10.3295 7.92578 10.3719 8.31399 10.3825 8.78614C10.4037 9.77241 10.6791 10.7587 11.1664 11.598L11.5053 12.1646L11.7278 11.5141C12.0455 10.5908 12.7764 9.76191 13.4649 9.55207C13.6874 9.48912 13.698 9.5101 13.698 10.0977L13.7086 10.7062L13.9522 10.1921C14.2594 9.58355 14.7784 9.02746 15.308 8.75466C15.6894 8.55531 16.6533 8.3035 16.7274 8.37694C16.7592 8.39793 16.6957 8.61827 16.6109 8.87008C16.3461 9.59404 16.4097 9.68847 16.8545 9.26878C17.6596 8.48187 18.8565 8.24055 19.9899 8.61827L20.4984 8.79663L19.8099 9.48912C18.4222 10.9056 17.596 12.5738 17.3524 14.4834L17.2888 15.008Z" fill="#808191"/>
</svg>
