<svg width="60" height="48" viewBox="0 0 60 48" fill="none" xmlns="http://www.w3.org/2000/svg">
<path d="M50.8199 4.64622C46.9364 2.82924 42.784 1.50874 38.4428 0.756836C37.9097 1.72075 37.2868 3.01724 36.8573 4.04859C32.2425 3.35458 27.6702 3.35458 23.1402 4.04859C22.7109 3.01724 22.0739 1.72075 21.5359 0.756836C17.19 1.50874 13.0329 2.83409 9.14943 4.65584C1.31646 16.4925 -0.806935 28.0351 0.254762 39.4139C5.45 43.2936 10.4848 45.6504 15.4347 47.1926C16.6568 45.5105 17.7468 43.7225 18.6858 41.8381C16.8974 41.1586 15.1846 40.32 13.5661 39.3465C13.9955 39.0284 14.4155 38.6958 14.8212 38.3536C24.6926 42.9707 35.4182 42.9707 45.1716 38.3536C45.5822 38.6958 46.0021 39.0284 46.4268 39.3465C44.8036 40.3248 43.086 41.1633 41.2976 41.843C42.2366 43.7225 43.3219 45.5154 44.5488 47.1973C49.5034 45.6551 54.5429 43.2984 59.7381 39.4139C60.9839 26.223 57.61 14.7864 50.8199 4.64622ZM20.0306 32.4161C17.0673 32.4161 14.6372 29.6496 14.6372 26.2808C14.6372 22.912 17.0154 20.1408 20.0306 20.1408C23.0459 20.1408 25.476 22.9072 25.4241 26.2808C25.4288 29.6496 23.0459 32.4161 20.0306 32.4161ZM39.9623 32.4161C36.999 32.4161 34.5688 29.6496 34.5688 26.2808C34.5688 22.912 36.947 20.1408 39.9623 20.1408C42.9774 20.1408 45.4076 22.9072 45.3557 26.2808C45.3557 29.6496 42.9774 32.4161 39.9623 32.4161Z" fill="white"/>
</svg>
