<svg width="30" height="31" viewBox="0 0 30 31" fill="none" xmlns="http://www.w3.org/2000/svg">
<path d="M14.9086 30.4249C23.2443 30.4249 30 23.6692 30 15.3336C30 6.99794 23.2443 0.242187 14.9086 0.242187C7.37473 0.242187 1.13185 5.75997 -5.56592e-07 12.9755L10.5463 12.9755L10.5463 9.14374L14.9086 9.14374L14.9086 12.9755L18.2334 12.9755C22.0151 12.9755 24.1049 15.2275 24.1049 18.6761C24.1049 20.3267 23.8102 22.0539 23.8102 22.0539L20.0963 22.0539L20.0963 20.1498C20.0963 18.2752 18.932 17.6916 17.7383 17.6916L14.9086 17.6916L14.9086 21.8771L10.5463 21.208L10.5463 17.6916L-7.62738e-07 17.6916C1.13185 24.9072 7.37473 30.4249 14.9086 30.4249Z" fill="#808191"/>
</svg>
