<svg width="30" height="31" viewBox="0 0 30 31" fill="none" xmlns="http://www.w3.org/2000/svg">
<path fill-rule="evenodd" clip-rule="evenodd" d="M30 15.4258C30 7.14151 23.2843 0.425781 15 0.425781C6.71573 0.42578 -2.93554e-07 7.14151 -6.55671e-07 15.4258C-1.01779e-06 23.7101 6.71573 30.4258 15 30.4258C23.2843 30.4258 30 23.7101 30 15.4258ZM22.9517 12.1273C22.9905 12.9807 23 13.2534 23 15.426L23 15.4235C23 17.5969 22.9905 17.8686 22.9517 18.7219C22.9127 19.5736 22.7779 20.1553 22.58 20.6653C22.3759 21.1919 22.1025 21.6369 21.6575 22.0819C21.2128 22.5269 20.7665 22.8003 20.2403 23.0053C19.7317 23.202 19.1503 23.337 18.2986 23.377C17.4453 23.4153 17.1726 23.4253 14.9999 23.4253C12.8273 23.4253 12.5553 23.4153 11.7019 23.377C10.8506 23.337 10.2691 23.202 9.76022 23.0053C9.23422 22.8003 8.78788 22.5269 8.34321 22.0819C7.89821 21.6374 7.6242 21.1918 7.41987 20.6658C7.22203 20.1568 7.0872 19.5748 7.0482 18.7231C7.00936 17.8697 6.99986 17.5979 6.99986 15.425C6.99986 13.2525 7.00936 12.98 7.0482 12.1267C7.0872 11.2752 7.22203 10.6937 7.41987 10.1847C7.6242 9.65882 7.89821 9.21248 8.34321 8.76797C8.78788 8.32313 9.23422 8.0498 9.76039 7.8453C10.2691 7.64763 10.8504 7.51279 11.7021 7.47363C12.5554 7.43496 12.8273 7.42529 14.9999 7.42529C17.1726 7.42529 17.4455 7.43529 18.2988 7.47346C19.1502 7.51179 19.7317 7.64679 20.2405 7.84513C20.7665 8.05013 21.2128 8.32347 21.6575 8.76847C22.1024 9.21314 22.3757 9.65948 22.58 10.1857C22.7779 10.6943 22.9127 11.2757 22.9517 12.1273Z" fill="#808191"/>
<path fill-rule="evenodd" clip-rule="evenodd" d="M21.5584 14.7089C21.5586 14.8482 21.5585 14.9982 21.5584 15.1599L21.5584 15.4266C21.5584 17.5626 21.5507 17.8158 21.5124 18.6593C21.4767 19.4393 21.3464 19.8626 21.2369 20.1446C21.0919 20.518 20.9185 20.7841 20.6385 21.064C20.3585 21.344 20.0918 21.5173 19.7185 21.6626C19.4368 21.7721 19.0135 21.9026 18.2335 21.9381C17.3902 21.9765 17.1368 21.9848 15.0018 21.9848C12.8668 21.9848 12.6134 21.9765 11.7701 21.9381C10.9901 21.9025 10.5667 21.7721 10.2851 21.6626C9.91174 21.5176 9.64591 21.344 9.36607 21.064C9.08607 20.784 8.91273 20.5181 8.76773 20.1446C8.65773 19.8629 8.52773 19.4393 8.49206 18.6593C8.45373 17.8159 8.44539 17.5626 8.44539 15.4266C8.44539 13.2904 8.45373 13.0372 8.49206 12.1939C8.52806 11.4139 8.6584 10.9905 8.7679 10.7083C8.9129 10.335 9.08623 10.0683 9.36624 9.78834C9.64624 9.50834 9.91224 9.335 10.2857 9.18967C10.5674 9.08017 10.9908 8.94966 11.7708 8.91416C12.6141 8.87583 12.8674 8.86816 15.0038 8.86816C17.1402 8.86816 17.3922 8.87583 18.2355 8.91416C19.0155 8.94983 19.4388 9.08017 19.7208 9.18967C20.0942 9.33467 20.3609 9.50834 20.6409 9.78834C20.9209 10.0683 21.0942 10.335 21.2395 10.7083C21.3495 10.9904 21.4795 11.4139 21.5154 12.1939C21.5487 12.9319 21.5587 13.2179 21.5604 14.7089L21.5584 14.7089ZM20.2302 19.6993C20.2302 19.1693 19.8007 18.7393 19.2705 18.7393C18.7405 18.7393 18.3105 19.1693 18.3105 19.6993C18.3105 20.2293 18.7405 20.6593 19.2705 20.6593C19.8005 20.6593 20.2302 20.2293 20.2302 19.6993ZM15 11.3203C17.2688 11.3203 19.1082 13.1597 19.1083 15.4285C19.1083 17.6974 17.2688 19.5364 15 19.5364C12.7311 19.5364 10.8924 17.6975 10.8924 15.4287C10.8924 13.1598 12.7311 11.3203 15 11.3203Z" fill="#808191"/>
<path d="M17.6665 15.4284C17.6665 16.9011 16.4727 18.0951 14.9998 18.0951C13.5271 18.0951 12.3331 16.9011 12.3331 15.4284C12.3331 13.9556 13.5271 12.7617 14.9998 12.7617C16.4727 12.7617 17.6665 13.9556 17.6665 15.4284Z" fill="#808191"/>
</svg>
