<svg width="30" height="30" viewBox="0 0 30 30" fill="none" xmlns="http://www.w3.org/2000/svg">
<path d="M30 15C30 6.71562 23.2844 -2.93549e-07 15 -6.55671e-07C6.71563 -1.01779e-06 1.6138e-06 6.71562 1.25168e-06 15C8.89556e-07 23.2844 6.71562 30 15 30C23.2844 30 30 23.2844 30 15ZM8.78281 11.3281L8.78281 8.29062L18.5578 8.29062L18.5578 11.3281L8.78281 11.3281ZM19.7578 9.79062C19.7578 8.83125 20.4375 8.21094 21.2781 8.21094C22.1359 8.21094 22.7953 8.85 22.7953 9.82969C22.7953 10.8094 22.1359 11.4094 21.2781 11.4281C20.4375 11.4281 19.7578 10.8094 19.7578 9.79062ZM8.78281 22.4219L8.78281 19.3844L14.2 19.3844C15.4609 19.3844 16.3172 18.9437 16.3172 17.8453C16.3172 17.0062 15.7375 16.5078 15.1797 16.2875C14.9812 16.2062 14.7 16.1859 14.4203 16.1859L8.78438 16.1859L8.78438 13.1469L15.4406 13.1469C16.6609 13.1469 17.6812 13.1078 18.5594 13.0672L18.5594 15.7062L17.2016 15.8453L17.2016 15.9062C17.8391 16.3062 18.7797 17.2859 18.7797 18.925C18.7797 20.9234 17.4406 22.4219 14.5625 22.4219L8.78281 22.4219Z" fill="#808191"/>
</svg>
