<svg width="550" height="295" viewBox="0 0 550 295" fill="none" xmlns="http://www.w3.org/2000/svg">
<g clip-path="url(#clip0)">
<path d="M528.455 294.392C528.455 294.392 577.044 220.638 523.869 140.79C476.688 69.9437 402.247 126.278 360.064 54.1885C302.543 -44.1208 15.4731 -5.72803 51.8297 145.524C69.4224 218.72 -28.0248 221.38 8.22717 294.547L528.455 294.392Z" fill="#EBF3FA"/>
<path d="M165.795 147.011C165.795 147.011 174.572 135.4 165.25 128.952C165.25 128.952 158.517 125.436 153.247 126.085C153.247 126.085 161.527 138.163 159.181 139.558C156.834 140.952 150.925 125.434 150.925 125.434C150.925 125.434 136.07 124.926 131.463 127.501C131.463 127.501 144.731 137.024 142.111 137.802C139.491 138.58 125.223 129.313 125.223 129.313C125.223 129.313 111.627 132.505 112.884 140.825C114.141 149.146 119.037 151.434 121.103 151.072C123.17 150.71 135.055 145.324 135.426 147.009C135.797 148.694 128.819 154.713 123.702 155.292C123.702 155.292 134.059 165.349 140.305 161.875C146.55 158.4 146.796 153.482 150.695 151.402C154.595 149.322 158.021 149.114 156.481 151.083C154.941 153.053 147.79 155.319 145.748 159.514C143.706 163.71 141.818 166.571 148.41 165.155C155.002 163.74 165.533 158.199 165.66 152.599L165.795 147.011Z" fill="#82B378"/>
<path d="M119.651 140.634C119.651 140.634 156.886 136.873 165.795 147.012C165.795 147.012 167.959 152.348 173.877 156.961L174.9 159.283C174.9 159.283 168.008 152.881 165.668 152.614C165.668 152.623 168.466 139.19 119.651 140.634Z" fill="#82B378"/>
<path d="M173.878 156.96C173.878 156.96 182.259 162.374 183.478 172.899L182.031 173.12C182.031 173.12 178.789 162.353 173.897 158.37C169.005 154.387 173.878 156.96 173.878 156.96Z" fill="#82B378"/>
<path d="M208.854 119.252C208.854 119.252 228.313 108.376 219.231 93.6089C219.231 93.6089 211.966 84.5463 204.182 82.2237C204.182 82.2237 208.333 104.235 204.182 104.751C200.031 105.267 201.33 79.8935 201.33 79.8935C201.33 79.8935 180.832 70.0529 172.788 70.829C172.788 70.829 185.502 92.3224 181.344 91.8044C177.185 91.2863 162.92 69.5349 162.92 69.5349C162.92 69.5349 141.903 65.6507 138.53 78.0738C135.157 90.497 140.606 96.719 143.721 97.4951C146.835 98.2712 166.812 98.0131 166.295 100.603C165.778 103.193 152.282 107.336 144.759 105.006C144.759 105.006 153.062 125.463 163.962 124.427C174.862 123.391 178.233 116.658 184.979 116.14C191.725 115.622 196.655 117.434 193.282 119.248C189.909 121.062 178.492 119.842 173.044 124.465C167.597 129.087 163.184 131.937 173.303 134.007C183.422 136.078 201.585 134.785 205.218 127.017L208.854 119.252Z" fill="#A8D29F"/>
<path d="M148.14 81.9619C148.14 81.9619 202.627 99.571 208.854 119.252C208.854 119.252 208.595 128.057 214.044 138.155V142.04C214.044 142.04 208.341 128.833 205.222 127.021C205.222 127.021 217.417 109.928 148.14 81.9619Z" fill="#82B378"/>
<path d="M214.044 138.156C214.044 138.156 222.446 150.89 217.657 166.393L215.495 165.813C215.495 165.813 217.586 148.735 213.196 140.15C208.806 131.566 214.044 138.156 214.044 138.156Z" fill="#82B378"/>
<path d="M311.475 124.826C311.475 124.826 288.819 115.26 296.995 97.9869C296.995 97.9869 303.855 87.171 312.102 83.6814C312.102 83.6814 310.226 108.304 314.838 108.37C319.451 108.437 314.947 80.782 314.947 80.782C314.947 80.782 336.215 67.5182 345.124 67.3968C345.124 67.3968 333.802 92.4879 338.28 91.4196C342.757 90.3512 355.771 64.7858 355.771 64.7858C355.771 64.7858 378.33 57.9869 383.53 71.2013C388.73 84.4158 383.521 91.8845 380.203 93.1122C376.885 94.3399 354.96 96.4727 355.842 99.2469C356.724 102.021 372.014 104.93 379.977 101.467C379.977 101.467 373.362 124.888 361.295 125.072C349.227 125.256 344.717 118.277 337.257 118.533C329.796 118.79 324.619 121.365 328.535 122.943C332.452 124.522 344.814 121.805 351.351 126.213C357.888 130.621 363.063 133.207 352.226 136.702C341.388 140.198 321.328 140.974 316.403 132.907L311.475 124.826Z" fill="#A8D29F"/>
<path d="M373.482 76.6182C373.482 76.6182 315.909 102.504 311.475 124.816C311.475 124.816 312.829 134.432 308.083 146.159L308.556 150.415C308.556 150.415 313.207 135.252 316.399 132.889C316.399 132.899 300.961 115.645 373.482 76.6182Z" fill="#82B378"/>
<path d="M308.082 146.171C308.082 146.171 300.422 161.142 307.554 177.552L309.853 176.654C309.853 176.654 305.48 158.197 309.254 148.254C313.028 138.311 308.082 146.171 308.082 146.171Z" fill="#82B378"/>
<path d="M357.925 180.327C361.918 174.566 362.372 169.2 362.372 169.2C362.372 169.2 351.299 161.264 357.828 152.921C357.828 152.921 362.861 147.911 367.749 147.038C367.749 147.038 363.718 160.131 366.203 160.721C368.688 161.312 369.643 145.816 369.643 145.816C369.643 145.816 382.762 141.24 387.599 142.262C387.599 142.262 378.404 154.448 380.959 154.416C383.515 154.384 393.677 142.148 393.677 142.148C393.677 142.148 406.707 141.224 407.904 149.004C409.102 156.784 405.364 160.186 403.419 160.446C401.474 160.706 389.35 159.184 389.496 160.792C389.642 162.399 397.544 165.837 402.275 164.936C402.275 164.936 395.829 176.795 389.281 175.422C382.733 174.048 381.146 169.729 377.084 168.953C373.023 168.177 369.903 168.942 371.829 170.281C373.755 171.621 380.765 171.651 383.764 174.835C386.762 178.019 389.239 180.046 382.95 180.613C376.66 181.181 365.72 179.154 364.047 174.188C363.973 173.97 363.905 173.765 363.838 173.566C363.88 173.782 363.951 173.991 364.047 174.188C362.838 174.72 360.783 177.676 359.33 179.959C359.115 180.351 358.784 180.89 358.303 181.617C358.113 181.949 357.944 182.221 357.834 182.41C355.056 187.575 355.149 197.048 355.149 197.048L353.795 197.251C351.942 187.496 357.925 180.327 357.925 180.327Z" fill="#82B378"/>
<path d="M431.935 47.7C432.045 47.1042 433.456 40.7057 443.367 41.7968C443.367 41.7968 438.424 41.6716 437.283 43.6791C437.283 43.6791 440.97 41.5273 443.539 42.7626C446.107 43.9979 447.007 48.9334 446.794 50.4818C446.581 52.0302 444.364 56.7968 442.594 56.9865C441.891 57.0271 441.188 56.9264 440.525 56.6905C440.902 57.5217 441.23 58.3738 441.508 59.2427C444.273 67.8803 439.065 75.1819 435.857 73.8233C433.8 72.9542 432.665 76.5083 432.665 76.5083L414.335 56.7171C414.335 56.7171 424.256 42.0606 431.935 47.7Z" fill="#2C3A64"/>
<path d="M408.055 286.072L412.514 287.727C412.514 287.727 431.878 260.926 434.268 237.341C434.694 233.131 434.552 229.053 433.631 225.284C433.631 225.284 433.821 224.207 434.152 222.3C434.304 221.41 434.494 220.338 434.709 219.11C435.339 215.505 436.206 210.584 437.194 204.975C439.476 192.072 442.425 175.563 444.718 163.438L443.518 163.059L430.519 158.884L427.832 150.37L418.155 147.827C418.155 147.827 415.993 152.047 414.059 171.987C413.704 174.603 413.379 177.489 413.135 180.615C412.245 192.258 412.553 203.962 414.056 215.542C414.5 219.009 415.067 222.582 415.755 226.264C416.265 228.958 416.343 232.632 416.136 236.848C415.147 256.112 408.055 286.072 408.055 286.072Z" fill="#2B478B"/>
<path d="M413.129 180.599L434.146 222.3C434.298 221.41 434.488 220.338 434.703 219.11C435.332 215.505 436.199 210.584 437.188 204.975C439.47 192.072 442.418 175.563 444.711 163.438L443.512 163.059L430.513 158.884L427.826 150.37L418.148 147.827C418.148 147.827 415.987 152.047 414.053 171.987C413.697 174.588 413.372 177.48 413.129 180.599Z" fill="#233862"/>
<path d="M409.232 119.796C409.075 119.966 408.908 120.126 408.73 120.274C401.764 126.754 392.379 132.482 387.361 133.746C384.061 134.589 376.78 133.46 370.734 132.219C366.707 131.427 363.199 130.549 361.753 130.207C361.292 130.099 361.034 130.018 361.034 130.018L361.665 125.949C361.665 125.949 365.289 125.663 369.791 125.156C376.066 124.42 384.011 123.291 386.047 122.09C390.77 119.289 399.058 107.541 405.707 100.156C406.055 99.7538 406.401 99.3667 406.743 98.9872C406.992 98.7082 407.243 98.4369 407.492 98.1693C407.546 98.0971 407.61 98.0332 407.682 97.9796C407.988 97.6855 408.253 97.4103 408.498 97.1731C408.509 97.1447 408.551 97.1219 408.595 97.0972C409.776 95.9132 411.848 94.4748 411.848 94.4748C413.01 93.8145 413.968 93.6874 414.641 94.2509C415.327 94.9822 415.906 95.8062 416.362 96.6987C416.542 97.0327 416.721 97.4027 416.89 97.8031C417.017 98.0179 417.111 98.2499 417.17 98.4919C417.836 100.248 418.142 102.119 418.071 103.995C418.001 105.856 417.632 107.693 416.978 109.437C415.826 112.699 412.886 116.336 409.232 119.796Z" fill="#FFB27D"/>
<path d="M415.299 102.626C417.66 104.165 420.603 105.406 424.273 106.144C438.031 108.911 442.944 97.2259 444.687 89.2563C443.236 88.5078 441.645 88.0684 440.016 87.9659C439.025 87.8786 437.983 87.8293 437.122 87.8122C435.553 86.6737 433.129 81.9432 432.414 74.5029L431.777 74.6927L421.088 77.9375C421.088 77.9375 421.678 81.3416 422.01 84.5656C422.269 87.0874 422.366 89.4991 421.904 90.1082C421.067 90.3132 420.573 90.446 420.573 90.446C418.428 94.3282 416.662 98.4071 415.299 102.626Z" fill="#FFB27D"/>
<path d="M410.502 111.203C410.564 111.497 410.642 111.773 410.728 112.078C413.143 120.137 415.101 152.351 415.101 152.351C413.821 156.378 437.278 157.203 450.214 155.342C454.918 154.668 458.23 153.634 458.456 152.277C460.772 147.07 455.108 137.346 451.836 132.403C450.397 130.22 449.672 127.644 449.764 125.033C449.86 122.478 450.079 119.998 450.347 117.676C450.847 113.294 451.517 109.469 451.868 106.761C451.189 106.086 450.526 105.459 449.908 104.864C448.969 103.945 448.144 103.095 447.564 102.27C446.927 101.37 446.573 100.492 446.651 99.5714C446.716 98.8634 446.837 98.1617 447.012 97.4727C447.094 97.1426 447.185 96.8162 447.284 96.4879C448.334 93.0534 450.267 90.0818 450.267 90.0818C446.765 88.0382 440.019 87.9756 440.019 87.9756C440.019 87.9756 439.972 88.3437 439.888 88.9452C439.559 91.3589 438.635 97.5505 437.69 98.6113C436.51 99.9395 417.856 103.759 417.206 101.647C416.567 99.56 420.419 90.8048 420.563 90.4727C420.564 90.469 420.564 90.4651 420.563 90.4613C414.589 91.8788 411.994 93.4803 411.876 93.5752C415.128 96.3987 408.808 103.477 410.502 111.203Z" fill="#FF9843"/>
<path d="M421.086 77.9471C421.086 77.9471 421.68 81.3494 422.01 84.5752C428.095 83.7934 430.756 77.9148 431.777 74.708L421.086 77.9471Z" fill="#ED985F"/>
<path d="M419.354 81.2074C419.354 81.2074 433.819 80.0025 432.928 71.0253C432.036 62.048 433.308 55.845 424.031 56.2245C414.755 56.604 413.308 60.2093 412.875 63.2871C412.441 66.3649 415.571 81.289 419.354 81.2074Z" fill="#FFB27D"/>
<path d="M412.804 58.2618C414.764 55.3377 416.512 55.7627 417.538 56.48C424.995 51.3567 430.724 57.2542 430.724 57.2542C432.336 63.5995 437.359 66.8235 437.359 66.8235C437.359 66.8235 434.888 68.7096 428.667 67.759C426.765 67.4686 424.98 66.3187 423.413 64.8652C425.276 67.3129 427.465 69.4956 429.92 71.3529C422.337 68.7343 418.417 58.9639 418.019 57.9297C417.219 58.8083 415.652 60.6982 415.291 62.4326C414.8 64.7912 414.949 69.5293 413.559 69.5066C413.559 69.5104 409.863 62.6451 412.804 58.2618Z" fill="#2C3A64"/>
<path d="M348.27 125.4C349.717 126.776 351.181 130.214 355.636 130.144C358.295 130.152 360.951 130.327 363.589 130.666C364.195 130.772 364.539 130.814 364.539 130.814L364.697 125.776C364.627 125.779 364.557 125.773 364.488 125.759C363.412 125.597 357.948 124.759 355.784 123.326C353.354 121.702 347.677 123.208 347.677 123.208C347.677 123.208 346.808 124.051 348.27 125.4Z" fill="#FFB27D"/>
<path d="M442.316 293.543H464.77C464.77 293.543 465.308 290.127 464.137 287.537C463.011 285.05 461.253 283.921 461.665 280.911C460.239 282.378 457.914 284.019 454.667 283.585C454.269 284.228 452.1 287.672 450.771 288.625C449.311 289.676 442.768 289.302 442.316 293.543Z" fill="#233862"/>
<path d="M394.103 293.542H416.558C416.558 293.542 417.398 289.967 415.923 287.536C414.618 285.383 415.118 284.157 416.084 282.377C414.892 282.892 413.6 283.135 412.302 283.089C411.185 283.024 410.002 282.519 408.964 281.916C407.998 283.015 403.859 287.696 402.566 288.624C401.098 289.675 394.556 289.301 394.103 293.542Z" fill="#233862"/>
<path d="M422.805 76.0155C422.805 76.0155 422.602 77.2034 419.672 77.2071C419.672 77.2071 417.212 77.2071 417.2 75.9169C417.206 75.9169 419.524 74.8524 422.805 76.0155Z" fill="white"/>
<path d="M447.151 133.078C448.039 138.695 452.108 149.966 450.216 155.342C454.92 154.668 458.232 153.634 458.458 152.277C460.774 147.071 455.11 137.346 451.838 132.403C450.398 130.22 449.673 127.644 449.764 125.033C449.861 122.478 450.079 119.998 450.347 117.676C450.347 117.676 446.206 127.112 447.151 133.078Z" fill="#ED7D2B"/>
<path d="M415.365 95.1953C415.209 100.186 411.593 113.886 410.736 112.083C409.754 110.021 405.958 102.18 404.174 101.892C404.267 101.529 411.566 93.4762 411.886 93.5692C411.886 93.5635 413.869 94.1669 415.365 95.1953Z" fill="#FF9843"/>
<path d="M449.796 165.988L453.522 168.455C453.522 168.455 454.473 167.281 455.956 165.4C456.403 164.831 456.643 164.493 456.643 164.493C457.823 162.975 459.196 161.112 460.696 159.093L460.721 159.068C463.238 155.542 466.001 151.531 468.115 147.905C469.585 145.336 470.729 142.954 471.288 141.083C471.347 140.897 471.391 140.707 471.421 140.514C472.515 135.77 470.511 126.347 467.318 117.154C466.879 115.884 466.415 114.634 465.972 113.41C464.274 108.901 462.36 104.666 460.458 101.241C459.335 99.182 458.213 97.3869 457.135 96.0473C456.791 95.588 456.422 95.1484 456.028 94.7304C455.823 94.4989 455.616 94.2731 455.414 94.0605C453.176 94.2503 448.482 95.1327 444.997 99.1497C445.056 99.3604 445.119 99.571 445.187 99.7873C446.596 104.322 448.773 109.888 451.028 115.347C452.254 118.343 453.5 121.317 454.608 124.114C455.306 125.785 455.939 127.379 456.509 128.857C457.582 131.677 458.376 134.023 458.694 135.666C458.907 136.732 458.603 138.74 458.025 141.207C457.036 145.505 455.154 151.294 453.405 156.21C452.688 158.262 451.984 160.171 451.395 161.753C450.429 164.315 449.796 165.988 449.796 165.988Z" fill="#FFB27D"/>
<path d="M448.168 113.356C451.889 107.751 462.554 105.339 462.554 105.339C456.536 86.2825 440.733 88.0491 440.733 88.0491C440.733 88.0491 446.484 107.874 448.168 113.356Z" fill="#FF9843"/>
<path d="M453.522 168.464C453.522 168.464 452.543 169.906 452.433 170.942C452.323 171.978 451.395 175.418 450.191 176.511C448.988 177.604 446.246 179.786 445.866 179.458C445.486 179.13 444.375 176.557 445.402 174.737C445.864 173.915 446.493 171.625 447.324 171.071C448.33 170.397 449.796 165.989 449.796 165.989L453.522 168.464Z" fill="#FFB27D"/>
<path d="M449.781 166.549C449.781 166.549 446.819 168.05 446.417 169.251C446.016 170.452 444.362 172.873 444.531 173.154C444.7 173.435 447.288 171.814 448.163 170.323C449.037 168.832 449.781 166.549 449.781 166.549Z" fill="#FFB27D"/>
<path d="M379.285 152.583L270.797 87.7633C267.86 86.0087 264.502 85.082 261.08 85.082C257.658 85.082 254.3 86.0087 251.363 87.7633L142.875 152.583V258.23L379.285 246.401V152.583Z" fill="#ED7D2B"/>
<path d="M163.224 105.774H358.935V274.571H163.224V105.774Z" fill="#FCECDB"/>
<path d="M350.179 114.994C349.153 114.57 348.665 113.395 349.09 112.371C349.516 111.347 350.692 110.86 351.719 111.284C352.745 111.709 353.232 112.883 352.807 113.907C352.382 114.932 351.205 115.418 350.179 114.994Z" fill="#EFCBAB"/>
<path d="M173.343 113.138C173.343 112.741 173.225 112.352 173.004 112.021C172.783 111.69 172.469 111.433 172.101 111.28C171.733 111.128 171.328 111.088 170.937 111.165C170.546 111.243 170.187 111.434 169.906 111.716C169.624 111.997 169.432 112.355 169.355 112.745C169.277 113.135 169.317 113.539 169.47 113.906C169.622 114.274 169.881 114.587 170.212 114.808C170.543 115.029 170.933 115.146 171.331 115.146C171.865 115.146 172.376 114.934 172.754 114.558C173.131 114.181 173.343 113.671 173.343 113.138Z" fill="#EFCBAB"/>
<path d="M171.332 112.92H350.949V113.356H171.332V112.92Z" fill="#EFCBAB"/>
<path d="M350.731 112.342H351.168V291.604H350.731V112.342Z" fill="#EFCBAB"/>
<path d="M171.043 112.342H171.48V291.604H171.043V112.342Z" fill="#EFCBAB"/>
<path d="M142.877 152.292V293.542H379.285V152.292L261.081 222.918L142.877 152.292Z" fill="#FF9843"/>
<path d="M379.285 293.543L271.004 216.067C268.111 213.996 264.641 212.883 261.081 212.883C257.521 212.883 254.051 213.996 251.158 216.067L142.875 293.543H379.285Z" fill="#ED7D2B"/>
<path d="M224.993 129.159H296.349C296.848 129.158 297.327 128.959 297.68 128.607C298.033 128.255 298.232 127.777 298.233 127.279C298.232 126.781 298.033 126.303 297.68 125.951C297.327 125.599 296.848 125.4 296.349 125.398H224.993C224.494 125.4 224.016 125.599 223.663 125.951C223.31 126.303 223.111 126.781 223.109 127.279C223.111 127.777 223.31 128.255 223.663 128.607C224.016 128.959 224.494 129.158 224.993 129.159Z" fill="#EFCBAB"/>
<path d="M206.614 136.702H314.729C315.228 136.701 315.707 136.502 316.06 136.15C316.413 135.798 316.612 135.32 316.613 134.822C316.612 134.324 316.413 133.847 316.06 133.495C315.707 133.143 315.228 132.944 314.729 132.943H206.614C206.115 132.944 205.636 133.143 205.283 133.495C204.93 133.847 204.731 134.324 204.729 134.822C204.731 135.32 204.93 135.798 205.283 136.15C205.636 136.502 206.114 136.701 206.614 136.702Z" fill="#EFCBAB"/>
<path d="M220.634 160.1H298.859C299.22 160.099 299.566 159.955 299.822 159.7C300.077 159.445 300.221 159.1 300.222 158.739C300.221 158.379 300.077 158.033 299.822 157.779C299.566 157.524 299.22 157.38 298.859 157.379H220.634C220.273 157.38 219.927 157.524 219.672 157.779C219.416 158.034 219.272 158.379 219.271 158.739C219.272 159.1 219.416 159.445 219.672 159.7C219.927 159.955 220.273 160.098 220.634 160.1Z" fill="#EFCBAB"/>
<path d="M291.005 167.204H313.06C313.421 167.203 313.767 167.059 314.022 166.804C314.278 166.549 314.422 166.204 314.423 165.844C314.422 165.484 314.278 165.138 314.022 164.884C313.767 164.629 313.421 164.485 313.06 164.483H291.005C290.644 164.485 290.298 164.629 290.043 164.884C289.787 165.138 289.643 165.484 289.642 165.844C289.643 166.204 289.787 166.549 290.043 166.804C290.298 167.059 290.644 167.203 291.005 167.204Z" fill="#EFCBAB"/>
<path d="M257.74 167.204H284.389C284.75 167.203 285.095 167.059 285.35 166.804C285.605 166.549 285.749 166.204 285.75 165.844C285.749 165.484 285.605 165.139 285.35 164.884C285.095 164.629 284.75 164.485 284.389 164.483H257.74C257.379 164.485 257.033 164.629 256.778 164.884C256.522 165.138 256.378 165.484 256.377 165.844C256.378 166.204 256.522 166.549 256.778 166.804C257.033 167.059 257.379 167.203 257.74 167.204Z" fill="#EFCBAB"/>
<path d="M206.433 167.204H252.503C252.865 167.203 253.21 167.059 253.466 166.804C253.721 166.549 253.865 166.204 253.867 165.844C253.865 165.484 253.721 165.138 253.466 164.884C253.21 164.629 252.865 164.485 252.503 164.483H206.437C206.076 164.485 205.73 164.629 205.475 164.884C205.219 165.138 205.075 165.484 205.074 165.844C205.075 166.204 205.219 166.548 205.473 166.803C205.728 167.058 206.073 167.202 206.433 167.204Z" fill="#EFCBAB"/>
<path d="M257.565 175.465H300.416C300.778 175.464 301.124 175.32 301.379 175.065C301.634 174.81 301.777 174.465 301.778 174.104C301.779 173.743 301.636 173.396 301.381 173.139C301.126 172.883 300.779 172.738 300.416 172.736H257.569C257.208 172.738 256.862 172.882 256.607 173.136C256.351 173.391 256.207 173.737 256.206 174.097C256.205 174.458 256.347 174.805 256.602 175.061C256.857 175.318 257.203 175.463 257.565 175.465Z" fill="#EFCBAB"/>
<path d="M219.083 175.465H252.831C253.192 175.464 253.538 175.321 253.793 175.066C254.048 174.811 254.191 174.465 254.192 174.105C254.191 173.744 254.047 173.399 253.792 173.144C253.537 172.89 253.191 172.746 252.831 172.744H219.083C218.721 172.746 218.376 172.889 218.12 173.144C217.865 173.399 217.721 173.744 217.719 174.105C217.72 174.465 217.864 174.811 218.12 175.066C218.375 175.321 218.721 175.464 219.083 175.465Z" fill="#EFCBAB"/>
<path d="M245.528 192.262C248.1 194.355 250.858 196.209 253.768 197.801C253.523 197.042 253.317 196.236 253.356 195.524C253.407 194.545 254.19 194.116 254.974 193.71C255.164 193.609 255.354 193.503 255.529 193.397C255.366 193.257 255.253 193.068 255.206 192.859C255.159 192.65 255.181 192.431 255.268 192.236C255.599 191.496 256.527 191.615 256.841 192.3C256.897 192.42 256.933 192.548 256.949 192.68C257.066 192.621 257.17 192.539 257.253 192.439C256.776 191.549 256.325 190.644 255.911 189.718C255.875 189.613 255.874 189.5 255.908 189.395C255.943 189.291 256.01 189.2 256.101 189.137C256.433 188.897 256.845 188.794 257.252 188.85C257.658 188.906 258.027 189.116 258.282 189.437C258.938 190.209 258.772 191.384 258.459 192.26C258.436 192.323 258.411 192.384 258.386 192.45C258.995 193.544 259.655 194.61 260.366 195.647L260.565 195.448C260.772 195.246 260.957 195.024 261.119 194.784C260.79 193.932 260.584 193.037 260.508 192.127C260.474 191.716 260.888 191.513 261.231 191.64C261.685 191.816 262.067 192.141 262.311 192.562C262.556 192.984 262.65 193.475 262.577 193.957C262.531 194.296 262.426 194.624 262.265 194.926C262.479 195.394 262.734 195.842 263.026 196.266C263.066 196.321 263.093 196.385 263.106 196.451C263.119 196.518 263.118 196.587 263.101 196.654C263.085 196.72 263.054 196.782 263.012 196.835C262.969 196.888 262.915 196.932 262.854 196.962C263.166 198 263.588 199.065 264.307 199.809C264.894 200.42 265.99 200.885 266.705 200.158C267.157 199.699 267.214 198.93 267.275 198.323C267.448 196.811 267.518 195.29 267.486 193.769C267.48 193.051 267.363 192.339 267.138 191.657C266.986 191.238 266.775 190.602 266.568 191.325C266.469 191.678 266.606 192.228 266.642 192.589C266.706 193.232 265.706 193.306 265.642 192.664C265.566 191.905 265.227 190.327 266.083 189.854C266.792 189.461 267.444 190.025 267.773 190.613C268.954 192.729 268.484 195.638 268.305 197.938C268.165 199.773 267.476 202.025 265.128 201.44C262.919 200.892 262.107 198.112 261.6 196.2C261.569 196.094 261.574 195.981 261.615 195.879L261.588 195.831L261.311 196.107C261.181 196.22 261.056 196.344 260.93 196.469C261.162 196.79 261.399 197.107 261.641 197.418C261.702 197.51 261.731 197.62 261.724 197.73C261.717 197.84 261.674 197.945 261.601 198.029C260.858 198.921 259.521 198.258 259.548 197.162C259.554 196.923 259.611 196.689 259.715 196.475C259.017 195.473 258.365 194.442 257.761 193.382C257.606 193.543 257.418 193.669 257.21 193.752C257.002 193.835 256.779 193.873 256.555 193.864H256.455C256.197 194.126 255.903 194.349 255.58 194.526C255.295 194.687 254.966 194.786 254.709 194.995C254.234 195.374 254.375 195.828 254.479 196.38C254.637 197.11 254.831 197.831 255.063 198.541C256.072 199.11 257.069 199.856 257.409 201.008C257.719 202.067 257.443 203.181 256.534 203.837C256.47 203.88 256.397 203.908 256.321 203.918C256.245 203.929 256.167 203.922 256.093 203.898C256.02 203.874 255.953 203.834 255.898 203.78C255.843 203.726 255.8 203.661 255.774 203.588C255.204 202.19 254.69 200.769 254.253 199.325C254.24 199.279 254.224 199.232 254.209 199.186C253.317 198.68 252.384 198.237 251.504 197.714C249.164 196.327 246.939 194.758 244.849 193.019C244.368 192.602 245.032 191.849 245.528 192.262ZM257.721 190.934C257.721 190.532 257.517 189.795 257.055 189.807C257.265 190.258 257.479 190.706 257.706 191.148C257.713 191.071 257.719 190.998 257.721 190.928V190.934ZM256.447 202.509C256.869 201.719 256.257 200.746 255.574 200.103C255.844 200.902 256.137 201.704 256.447 202.499V202.509Z" fill="#F99746"/>
<g opacity="0.5">
<path opacity="0.5" d="M265.306 36.458L255.115 58.8982L292.673 75.8869L302.864 53.4466L278.989 56.1715L265.306 36.458Z" fill="#CDE0FB"/>
<path opacity="0.5" d="M302.864 53.4446L265.305 36.4541L276.535 55.3422C276.967 56.0697 277.611 56.6485 278.381 57.0014C279.151 57.3543 280.01 57.4646 280.845 57.3175L302.864 53.4446Z" fill="#B1CFF2"/>
</g>
<g opacity="0.5">
<path opacity="0.5" d="M486.11 182.985L480.749 197.333L504.764 206.27L510.125 191.921L495.438 194.627L486.11 182.985Z" fill="#CDE0FB"/>
<path opacity="0.5" d="M510.13 191.921L486.116 182.983L493.885 194.219C494.184 194.649 494.606 194.979 495.096 195.164C495.586 195.35 496.121 195.384 496.631 195.26L510.13 191.921Z" fill="#B1CFF2"/>
</g>
<g opacity="0.5">
<path opacity="0.5" d="M74.8632 97.5842L82.3962 125.759L129.55 113.199L122.017 85.0244L102.208 105.393L74.8632 97.5842Z" fill="#CDE0FB"/>
<path opacity="0.5" d="M122.017 85.0244L74.865 97.5823L99.3403 106.472C100.283 106.814 101.308 106.861 102.279 106.608C103.249 106.354 104.12 105.812 104.774 105.053L122.017 85.0244Z" fill="#B1CFF2"/>
</g>
<path d="M496.457 246.425C497.598 246.425 498.703 246.406 499.745 246.377C499.773 246.376 499.802 246.37 499.828 246.358C499.855 246.346 499.878 246.33 499.898 246.309C499.918 246.288 499.933 246.263 499.944 246.236C499.954 246.209 499.959 246.18 499.958 246.151C499.957 246.123 499.95 246.095 499.939 246.069C499.927 246.042 499.91 246.019 499.889 245.999C499.868 245.98 499.844 245.964 499.817 245.954C499.79 245.944 499.762 245.94 499.733 245.941C498.695 245.969 497.592 245.984 496.457 245.988C496.428 245.988 496.4 245.993 496.373 246.004C496.347 246.015 496.322 246.031 496.302 246.051C496.282 246.072 496.266 246.096 496.255 246.123C496.244 246.149 496.238 246.178 496.239 246.206C496.239 246.264 496.262 246.319 496.303 246.36C496.344 246.401 496.399 246.424 496.457 246.425ZM493.172 246.4C493.23 246.4 493.285 246.377 493.326 246.336C493.367 246.295 493.39 246.24 493.39 246.182C493.39 246.124 493.367 246.068 493.326 246.027C493.285 245.986 493.23 245.963 493.172 245.963C492.12 245.944 491.016 245.918 489.888 245.88C489.859 245.878 489.831 245.882 489.803 245.892C489.776 245.902 489.751 245.917 489.73 245.937C489.709 245.957 489.693 245.98 489.681 246.007C489.67 246.033 489.664 246.062 489.664 246.091C489.663 246.119 489.667 246.148 489.677 246.175C489.687 246.202 489.702 246.227 489.722 246.248C489.742 246.269 489.765 246.286 489.792 246.297C489.818 246.309 489.846 246.316 489.875 246.316C491.004 246.354 492.111 246.381 493.164 246.4H493.172ZM503.017 246.235H503.03C504.188 246.165 505.291 246.075 506.312 245.967C506.34 245.964 506.368 245.955 506.393 245.942C506.418 245.928 506.441 245.909 506.459 245.887C506.477 245.864 506.49 245.839 506.498 245.811C506.506 245.784 506.509 245.755 506.506 245.726C506.502 245.698 506.494 245.67 506.48 245.645C506.466 245.62 506.447 245.598 506.425 245.58C506.403 245.562 506.377 245.548 506.349 245.54C506.322 245.532 506.293 245.53 506.264 245.533C505.251 245.641 504.156 245.722 503.003 245.798C502.945 245.8 502.89 245.825 502.851 245.867C502.811 245.909 502.79 245.965 502.791 246.023C502.793 246.081 502.818 246.136 502.86 246.176C502.902 246.215 502.959 246.237 503.017 246.235ZM486.601 246.185C486.659 246.187 486.715 246.165 486.757 246.126C486.799 246.086 486.824 246.031 486.825 245.973C486.827 245.915 486.805 245.859 486.765 245.817C486.725 245.775 486.67 245.751 486.612 245.749C485.559 245.702 484.454 245.643 483.333 245.578C483.274 245.576 483.218 245.596 483.174 245.634C483.131 245.673 483.105 245.727 483.101 245.785C483.099 245.814 483.103 245.842 483.113 245.87C483.122 245.897 483.137 245.921 483.156 245.943C483.176 245.964 483.199 245.981 483.225 245.994C483.251 246.006 483.279 246.013 483.308 246.015C484.432 246.079 485.536 246.138 486.591 246.185H486.601ZM480.04 245.806C480.068 245.807 480.097 245.802 480.124 245.792C480.151 245.782 480.175 245.767 480.196 245.747C480.217 245.728 480.234 245.704 480.246 245.678C480.258 245.652 480.265 245.624 480.266 245.595C480.267 245.567 480.262 245.538 480.252 245.511C480.242 245.484 480.227 245.46 480.207 245.439C480.188 245.418 480.164 245.401 480.138 245.389C480.112 245.377 480.083 245.371 480.055 245.37C478.976 245.297 477.884 245.219 476.779 245.134C476.721 245.13 476.663 245.149 476.619 245.187C476.575 245.225 476.548 245.278 476.544 245.336C476.54 245.394 476.559 245.451 476.597 245.495C476.635 245.539 476.688 245.566 476.746 245.571C477.853 245.654 478.946 245.733 480.024 245.806H480.04ZM509.536 245.51C509.55 245.512 509.563 245.512 509.576 245.51C510.664 245.326 511.738 245.072 512.793 244.751C512.821 244.743 512.847 244.729 512.87 244.711C512.893 244.692 512.912 244.67 512.925 244.644C512.939 244.618 512.947 244.59 512.95 244.561C512.953 244.532 512.949 244.503 512.941 244.475C512.932 244.447 512.917 244.421 512.898 244.399C512.879 244.377 512.856 244.359 512.83 244.346C512.804 244.333 512.775 244.325 512.746 244.324C512.717 244.322 512.688 244.326 512.66 244.335C511.624 244.656 510.567 244.91 509.498 245.094C509.445 245.104 509.397 245.134 509.364 245.177C509.332 245.22 509.316 245.274 509.321 245.328C509.326 245.382 509.35 245.432 509.39 245.469C509.43 245.506 509.482 245.526 509.536 245.527V245.51ZM473.488 245.309C473.542 245.309 473.595 245.288 473.635 245.25C473.675 245.213 473.7 245.162 473.704 245.108C473.71 245.051 473.693 244.995 473.657 244.951C473.622 244.907 473.57 244.879 473.514 244.872C472.434 244.781 471.344 244.686 470.242 244.586C470.213 244.583 470.184 244.586 470.157 244.595C470.129 244.603 470.104 244.617 470.082 244.636C470.06 244.654 470.041 244.677 470.028 244.702C470.014 244.728 470.006 244.755 470.004 244.784C470.001 244.813 470.004 244.842 470.013 244.869C470.021 244.897 470.035 244.922 470.053 244.944C470.072 244.966 470.095 244.985 470.12 244.998C470.146 245.011 470.173 245.02 470.202 245.022C471.305 245.121 472.396 245.216 473.476 245.307L473.488 245.309ZM466.943 244.715C466.998 244.713 467.051 244.691 467.09 244.652C467.129 244.614 467.152 244.562 467.155 244.507C467.157 244.452 467.139 244.399 467.104 244.357C467.069 244.315 467.019 244.287 466.964 244.28C465.882 244.177 464.792 244.068 463.696 243.954C463.638 243.948 463.581 243.966 463.536 244.002C463.491 244.039 463.462 244.092 463.456 244.149C463.451 244.207 463.468 244.265 463.505 244.309C463.541 244.354 463.594 244.383 463.652 244.389C464.75 244.5 465.84 244.609 466.922 244.715H466.943ZM460.407 244.047C460.435 244.048 460.464 244.044 460.491 244.035C460.518 244.025 460.543 244.01 460.565 243.991C460.608 243.952 460.634 243.898 460.637 243.84C460.64 243.782 460.62 243.726 460.581 243.682C460.542 243.639 460.488 243.614 460.43 243.611C459.347 243.495 458.26 243.375 457.167 243.25C457.138 243.247 457.109 243.249 457.082 243.257C457.054 243.265 457.028 243.278 457.006 243.296C456.983 243.314 456.964 243.336 456.951 243.361C456.937 243.386 456.928 243.414 456.924 243.443C456.921 243.471 456.924 243.5 456.932 243.528C456.94 243.555 456.953 243.581 456.971 243.603C456.989 243.626 457.011 243.645 457.036 243.659C457.061 243.672 457.089 243.681 457.117 243.685C458.21 243.811 459.299 243.931 460.384 244.045L460.407 244.047ZM515.683 243.362C515.73 243.362 515.775 243.347 515.812 243.32C516.388 242.926 516.856 242.394 517.172 241.772C517.362 241.371 517.524 240.959 517.659 240.537C517.667 240.509 517.67 240.48 517.667 240.452C517.665 240.423 517.656 240.395 517.643 240.37C517.63 240.345 517.611 240.322 517.589 240.304C517.567 240.286 517.542 240.272 517.514 240.263C517.487 240.255 517.458 240.252 517.429 240.254C517.401 240.257 517.373 240.265 517.347 240.279C517.322 240.292 517.299 240.31 517.281 240.333C517.263 240.355 517.249 240.38 517.24 240.407C517.114 240.81 516.959 241.203 516.776 241.584C516.491 242.14 516.071 242.615 515.554 242.967C515.531 242.984 515.511 243.006 515.496 243.03C515.481 243.055 515.471 243.082 515.467 243.11C515.462 243.139 515.463 243.168 515.47 243.195C515.477 243.223 515.489 243.25 515.506 243.273C515.526 243.301 515.552 243.325 515.583 243.341C515.614 243.357 515.648 243.366 515.683 243.366V243.362ZM453.878 243.313C453.936 243.316 453.993 243.296 454.036 243.257C454.079 243.219 454.105 243.165 454.109 243.107C454.112 243.049 454.092 242.992 454.053 242.949C454.015 242.906 453.96 242.879 453.902 242.876L450.642 242.497C450.612 242.491 450.582 242.492 450.553 242.499C450.524 242.506 450.497 242.518 450.473 242.536C450.449 242.554 450.429 242.576 450.414 242.602C450.399 242.628 450.389 242.656 450.386 242.686C450.382 242.715 450.385 242.745 450.394 242.774C450.402 242.802 450.416 242.829 450.435 242.852C450.455 242.874 450.478 242.893 450.505 242.906C450.531 242.92 450.561 242.928 450.59 242.929C451.682 243.056 452.769 243.182 453.853 243.309L453.878 243.313ZM447.356 242.521C447.412 242.521 447.465 242.499 447.505 242.461C447.545 242.423 447.569 242.372 447.572 242.316C447.576 242.261 447.558 242.207 447.523 242.164C447.488 242.122 447.438 242.094 447.383 242.087C446.303 241.951 445.22 241.814 444.135 241.675C444.078 241.668 444.019 241.684 443.973 241.719C443.927 241.755 443.897 241.807 443.89 241.865C443.883 241.922 443.899 241.981 443.934 242.026C443.97 242.072 444.023 242.102 444.08 242.11C445.164 242.249 446.246 242.386 447.328 242.521H447.356ZM440.856 241.688C440.91 241.686 440.961 241.663 441 241.625C441.038 241.587 441.061 241.537 441.065 241.483C441.068 241.429 441.052 241.376 441.019 241.333C440.985 241.29 440.937 241.262 440.884 241.252C439.799 241.11 438.714 240.965 437.627 240.817C437.599 240.813 437.57 240.815 437.542 240.823C437.514 240.83 437.488 240.843 437.465 240.86C437.442 240.877 437.423 240.899 437.409 240.924C437.394 240.948 437.385 240.976 437.381 241.004C437.377 241.033 437.379 241.062 437.386 241.089C437.394 241.117 437.406 241.143 437.424 241.166C437.441 241.189 437.463 241.208 437.488 241.222C437.512 241.237 437.54 241.246 437.568 241.25C438.655 241.398 439.741 241.543 440.827 241.685L440.856 241.688ZM434.336 240.808C434.389 240.807 434.44 240.788 434.479 240.753C434.519 240.718 434.544 240.67 434.551 240.618C434.555 240.59 434.553 240.56 434.546 240.533C434.538 240.505 434.525 240.479 434.508 240.456C434.49 240.433 434.468 240.414 434.443 240.4C434.417 240.386 434.39 240.377 434.361 240.373L431.108 239.92C431.078 239.913 431.048 239.913 431.018 239.919C430.988 239.924 430.96 239.936 430.935 239.953C430.911 239.97 430.89 239.992 430.874 240.018C430.858 240.044 430.847 240.072 430.843 240.102C430.839 240.132 430.841 240.163 430.849 240.192C430.857 240.221 430.871 240.248 430.891 240.271C430.91 240.294 430.933 240.313 430.96 240.327C430.987 240.341 431.017 240.349 431.047 240.351C432.131 240.505 433.216 240.657 434.302 240.806L434.336 240.808ZM427.83 239.889C427.886 239.89 427.939 239.869 427.98 239.831C428.021 239.794 428.046 239.742 428.05 239.686C428.054 239.631 428.036 239.576 428.001 239.533C427.966 239.49 427.915 239.462 427.86 239.455C426.775 239.299 425.692 239.142 424.611 238.984C424.583 238.98 424.553 238.982 424.526 238.988C424.498 238.995 424.471 239.008 424.448 239.025C424.425 239.042 424.406 239.063 424.391 239.088C424.376 239.113 424.366 239.14 424.362 239.168C424.358 239.197 424.359 239.226 424.366 239.254C424.373 239.281 424.385 239.308 424.403 239.331C424.42 239.354 424.441 239.373 424.466 239.388C424.491 239.403 424.518 239.413 424.546 239.417L427.798 239.888L427.83 239.889ZM421.329 238.941C421.385 238.942 421.439 238.921 421.48 238.884C421.522 238.846 421.547 238.794 421.551 238.739C421.555 238.683 421.538 238.628 421.503 238.585C421.467 238.542 421.417 238.513 421.362 238.506C420.274 238.344 419.191 238.182 418.112 238.018C418.084 238.014 418.055 238.016 418.027 238.023C417.999 238.03 417.973 238.042 417.95 238.059C417.926 238.076 417.907 238.098 417.892 238.122C417.877 238.147 417.868 238.174 417.863 238.203C417.859 238.231 417.86 238.26 417.867 238.288C417.874 238.316 417.887 238.342 417.904 238.365C417.921 238.388 417.943 238.408 417.967 238.422C417.992 238.437 418.019 238.447 418.048 238.451C419.125 238.614 420.208 238.776 421.297 238.937L421.329 238.941ZM414.833 237.958C414.886 237.956 414.938 237.934 414.977 237.897C415.015 237.86 415.039 237.81 415.043 237.756C415.047 237.702 415.031 237.649 414.998 237.607C414.965 237.564 414.918 237.535 414.865 237.525L411.619 237.022C411.562 237.013 411.503 237.028 411.456 237.062C411.41 237.096 411.378 237.148 411.369 237.205C411.361 237.263 411.375 237.321 411.409 237.368C411.444 237.415 411.495 237.446 411.553 237.455L414.8 237.956L414.833 237.958ZM517.664 237.461C517.679 237.462 517.694 237.462 517.708 237.461C517.765 237.449 517.815 237.416 517.847 237.368C517.879 237.32 517.89 237.261 517.879 237.204C517.639 236.103 517.133 235.077 516.404 234.216C516.367 234.171 516.314 234.142 516.256 234.136C516.199 234.13 516.141 234.147 516.096 234.184C516.051 234.22 516.022 234.273 516.016 234.331C516.01 234.388 516.027 234.446 516.063 234.491C516.744 235.296 517.216 236.255 517.44 237.284C517.449 237.336 517.476 237.384 517.518 237.417C517.559 237.45 517.611 237.467 517.664 237.464V237.461ZM408.34 236.948C408.396 236.95 408.45 236.93 408.492 236.892C408.534 236.855 408.559 236.803 408.564 236.747C408.568 236.691 408.551 236.636 408.516 236.593C408.48 236.549 408.429 236.521 408.374 236.514C407.285 236.343 406.204 236.172 405.13 236C405.101 235.994 405.072 235.994 405.043 236C405.014 236.006 404.987 236.018 404.963 236.035C404.939 236.051 404.918 236.073 404.903 236.098C404.887 236.123 404.877 236.15 404.872 236.179C404.867 236.208 404.869 236.238 404.876 236.266C404.883 236.295 404.896 236.322 404.913 236.345C404.931 236.369 404.953 236.388 404.979 236.403C405.004 236.417 405.033 236.427 405.062 236.43L408.305 236.946L408.34 236.948ZM401.852 235.91C401.906 235.909 401.958 235.888 401.997 235.85C402.036 235.813 402.06 235.763 402.064 235.709C402.069 235.656 402.053 235.602 402.02 235.56C401.987 235.517 401.94 235.488 401.887 235.478L398.645 234.95C398.617 234.945 398.588 234.946 398.56 234.952C398.532 234.959 398.506 234.971 398.482 234.987C398.459 235.004 398.439 235.025 398.424 235.049C398.409 235.073 398.399 235.1 398.394 235.129C398.389 235.157 398.39 235.186 398.396 235.214C398.403 235.242 398.415 235.269 398.432 235.292C398.448 235.316 398.47 235.336 398.494 235.351C398.519 235.366 398.546 235.376 398.575 235.381L401.816 235.908L401.852 235.91ZM395.367 234.85C395.423 234.852 395.478 234.832 395.521 234.795C395.563 234.758 395.589 234.706 395.594 234.65C395.598 234.594 395.581 234.538 395.546 234.494C395.51 234.45 395.459 234.422 395.403 234.415L392.162 233.876C392.133 233.871 392.104 233.872 392.076 233.878C392.048 233.884 392.022 233.896 391.998 233.912C391.975 233.929 391.955 233.95 391.94 233.975C391.925 233.999 391.915 234.026 391.911 234.055C391.906 234.083 391.906 234.112 391.913 234.14C391.919 234.168 391.931 234.194 391.947 234.218C391.964 234.241 391.985 234.261 392.009 234.276C392.034 234.292 392.061 234.302 392.089 234.307L395.331 234.846L395.367 234.85ZM388.886 233.762C388.94 233.761 388.991 233.74 389.031 233.703C389.07 233.666 389.095 233.616 389.099 233.562C389.104 233.508 389.088 233.455 389.055 233.412C389.022 233.369 388.975 233.34 388.922 233.33L385.689 232.778C385.661 232.773 385.632 232.774 385.604 232.78C385.576 232.787 385.55 232.798 385.526 232.815C385.503 232.832 385.483 232.853 385.468 232.877C385.453 232.901 385.442 232.929 385.438 232.957C385.433 232.985 385.434 233.014 385.44 233.042C385.447 233.07 385.459 233.096 385.475 233.12C385.492 233.143 385.513 233.163 385.537 233.178C385.562 233.193 385.589 233.203 385.617 233.208L388.849 233.76L388.886 233.762ZM382.408 232.654C382.464 232.656 382.519 232.637 382.561 232.6C382.604 232.562 382.63 232.51 382.634 232.454C382.639 232.398 382.622 232.342 382.586 232.299C382.551 232.255 382.5 232.227 382.444 232.22L379.212 231.65C379.155 231.64 379.096 231.653 379.048 231.687C379 231.72 378.968 231.771 378.958 231.828C378.948 231.885 378.961 231.944 378.994 231.991C379.028 232.039 379.078 232.071 379.136 232.081L382.368 232.65L382.408 232.654ZM513.82 232.39C513.866 232.39 513.911 232.374 513.948 232.347C513.985 232.319 514.013 232.28 514.027 232.236C514.04 232.192 514.04 232.145 514.026 232.101C514.011 232.057 513.983 232.019 513.945 231.992C513.033 231.367 512.074 230.814 511.076 230.335C511.05 230.32 511.021 230.309 510.991 230.306C510.961 230.302 510.93 230.304 510.901 230.313C510.872 230.321 510.845 230.336 510.822 230.355C510.798 230.375 510.779 230.399 510.766 230.427C510.753 230.454 510.745 230.484 510.744 230.514C510.743 230.544 510.748 230.575 510.76 230.603C510.771 230.631 510.788 230.657 510.81 230.678C510.832 230.699 510.858 230.716 510.886 230.726C511.863 231.195 512.803 231.738 513.696 232.351C513.732 232.377 513.775 232.393 513.82 232.394V232.39ZM375.93 231.521C375.984 231.521 376.036 231.5 376.076 231.463C376.116 231.426 376.141 231.376 376.145 231.322C376.15 231.268 376.135 231.214 376.102 231.171C376.069 231.128 376.021 231.099 375.968 231.089L372.736 230.519C372.707 230.512 372.677 230.511 372.647 230.516C372.618 230.521 372.59 230.532 372.565 230.549C372.539 230.565 372.518 230.586 372.502 230.611C372.485 230.636 372.474 230.664 372.469 230.693C372.463 230.723 372.464 230.753 372.471 230.782C372.478 230.811 372.491 230.838 372.509 230.862C372.527 230.886 372.549 230.906 372.575 230.921C372.601 230.936 372.63 230.945 372.66 230.948L375.892 231.518L375.93 231.521ZM369.454 230.366C369.508 230.364 369.558 230.342 369.597 230.305C369.636 230.269 369.66 230.219 369.665 230.166C369.67 230.113 369.655 230.06 369.624 230.017C369.592 229.973 369.546 229.943 369.494 229.931C368.353 229.726 367.27 229.529 366.262 229.345C366.233 229.338 366.203 229.337 366.174 229.342C366.145 229.347 366.117 229.358 366.092 229.375C366.067 229.391 366.046 229.412 366.03 229.437C366.013 229.461 366.002 229.489 365.997 229.518C365.991 229.547 365.992 229.577 365.999 229.606C366.005 229.635 366.018 229.662 366.035 229.686C366.053 229.71 366.075 229.73 366.101 229.745C366.126 229.76 366.155 229.77 366.184 229.774L369.416 230.362L369.454 230.366ZM507.956 229.472C508.008 229.472 508.058 229.454 508.097 229.421C508.137 229.389 508.163 229.343 508.172 229.292C508.182 229.242 508.172 229.19 508.147 229.145C508.121 229.101 508.081 229.066 508.032 229.049C507.063 228.688 506.009 228.339 504.899 228.007C504.843 227.99 504.783 227.997 504.732 228.024C504.681 228.052 504.643 228.099 504.626 228.154C504.61 228.21 504.616 228.27 504.643 228.321C504.671 228.372 504.718 228.41 504.774 228.426C505.874 228.755 506.92 229.102 507.88 229.459C507.905 229.468 507.93 229.472 507.956 229.472ZM362.969 229.187C363.023 229.187 363.076 229.167 363.116 229.13C363.156 229.094 363.181 229.043 363.186 228.989C363.191 228.935 363.176 228.881 363.143 228.838C363.11 228.794 363.062 228.765 363.009 228.755L359.777 228.153C359.721 228.145 359.663 228.158 359.617 228.191C359.571 228.224 359.539 228.273 359.529 228.329C359.519 228.385 359.53 228.442 359.562 228.489C359.593 228.537 359.641 228.57 359.697 228.582L362.929 229.184C362.942 229.187 362.956 229.188 362.969 229.187ZM356.482 227.973C356.536 227.973 356.589 227.953 356.63 227.917C356.67 227.88 356.695 227.83 356.701 227.776C356.706 227.721 356.691 227.667 356.658 227.624C356.625 227.58 356.577 227.55 356.524 227.54L356.143 227.47C356.111 227.464 356.078 227.464 356.047 227.472C356.015 227.48 355.985 227.494 355.96 227.514C355.934 227.535 355.914 227.56 355.899 227.589C355.884 227.618 355.876 227.65 355.875 227.683C355.875 227.872 355.896 227.872 356.446 227.969C356.461 227.973 356.476 227.974 356.491 227.973H356.482ZM501.663 227.574C501.717 227.575 501.769 227.555 501.809 227.52C501.85 227.484 501.875 227.435 501.882 227.382C501.888 227.329 501.875 227.275 501.844 227.231C501.813 227.187 501.767 227.156 501.714 227.144C500.691 226.893 499.608 226.65 498.495 226.423C498.467 226.417 498.438 226.417 498.41 226.422C498.382 226.428 498.355 226.439 498.331 226.455C498.307 226.47 498.286 226.491 498.27 226.515C498.254 226.539 498.243 226.565 498.237 226.593C498.231 226.622 498.231 226.651 498.236 226.679C498.242 226.707 498.253 226.734 498.269 226.758C498.285 226.782 498.305 226.802 498.329 226.818C498.353 226.835 498.38 226.846 498.408 226.851C499.515 227.077 500.593 227.318 501.61 227.569C501.627 227.573 501.645 227.574 501.663 227.574ZM495.218 226.246C495.272 226.246 495.324 226.225 495.364 226.188C495.403 226.151 495.428 226.101 495.433 226.047C495.438 225.993 495.422 225.939 495.389 225.896C495.357 225.853 495.309 225.824 495.256 225.814C494.206 225.624 493.111 225.461 492.001 225.299C491.972 225.295 491.942 225.297 491.914 225.304C491.886 225.311 491.859 225.324 491.836 225.342C491.813 225.359 491.793 225.382 491.779 225.407C491.764 225.432 491.755 225.46 491.752 225.489C491.748 225.518 491.749 225.547 491.757 225.575C491.764 225.603 491.777 225.63 491.795 225.653C491.812 225.676 491.834 225.695 491.86 225.71C491.885 225.725 491.913 225.734 491.942 225.738C493.05 225.897 494.141 226.07 495.187 226.25L495.218 226.246ZM488.706 225.297C488.761 225.297 488.814 225.275 488.854 225.237C488.894 225.199 488.918 225.148 488.922 225.093C488.925 225.037 488.907 224.983 488.872 224.94C488.837 224.898 488.787 224.87 488.732 224.863C487.654 224.734 486.551 224.612 485.456 224.504C485.4 224.499 485.343 224.516 485.299 224.552C485.254 224.587 485.225 224.638 485.217 224.694C485.211 224.751 485.227 224.808 485.263 224.852C485.298 224.897 485.35 224.926 485.407 224.933C486.5 225.041 487.599 225.161 488.673 225.292L488.706 225.297ZM482.156 224.652C482.184 224.653 482.213 224.649 482.24 224.639C482.267 224.628 482.291 224.613 482.312 224.594C482.334 224.574 482.35 224.551 482.362 224.525C482.374 224.498 482.381 224.47 482.382 224.442C482.383 224.413 482.378 224.384 482.368 224.358C482.358 224.331 482.343 224.306 482.323 224.285C482.304 224.264 482.28 224.247 482.254 224.235C482.228 224.223 482.2 224.217 482.171 224.216C480.138 224.06 478.874 224.005 478.861 224.005C478.832 224.004 478.803 224.008 478.776 224.018C478.749 224.027 478.724 224.042 478.703 224.062C478.682 224.081 478.665 224.105 478.653 224.131C478.642 224.157 478.635 224.185 478.634 224.214C478.633 224.243 478.637 224.271 478.647 224.298C478.657 224.326 478.672 224.35 478.691 224.372C478.711 224.393 478.734 224.41 478.76 224.422C478.786 224.434 478.815 224.441 478.844 224.442C478.855 224.442 480.114 224.495 482.139 224.65L482.156 224.652Z" fill="#AFCDFB"/>
<path d="M349.179 239.476L322.23 224.233L346.816 225.683L344.918 229.827L349.997 235.442L349.179 239.476Z" fill="#AFCDFB"/>
<path d="M322.23 224.233L350.47 229.399L371.041 243.655L322.23 224.233Z" fill="white"/>
<path d="M346.816 225.683L322.23 224.234L347.947 216.712L346.816 225.683Z" fill="white"/>
<path d="M203.401 39.1987L172.805 44.0317L192.942 29.8799L194.045 34.3011L201.523 35.5364L203.401 39.1987Z" fill="#AFCDFB"/>
<path d="M172.805 44.0326L198.121 30.5145L223.109 28.877L172.805 44.0326Z" fill="white"/>
<path d="M192.942 29.8802L172.805 44.0321L188.227 22.1592L192.942 29.8802Z" fill="white"/>
<path d="M110.753 162.919C110.753 162.919 116.993 163.351 121.59 174.564C126.235 185.873 115.846 185.759 119.345 192.97C122.843 200.181 114.308 204.473 111.715 210.372C109.122 216.272 96.0597 230.501 95.0254 236.991C93.9911 243.481 82.376 230.243 82.376 230.243C82.376 230.243 70.569 217.674 74.8013 210.372C81.7791 198.336 75.7348 195.721 75.9535 188.998C76.1721 182.276 88.964 155.788 110.753 162.919Z" fill="#233862"/>
<path d="M114.141 203.145C114.141 203.145 138.288 213.651 142.881 213.45C147.475 213.249 175.74 204.856 175.74 204.856L175.019 209.71C175.019 209.71 153.202 222.234 145.576 222.943C138.065 223.644 112.388 216.217 109.909 214.649C107.43 213.082 106.937 204.731 114.141 203.145Z" fill="#FFAD76"/>
<path d="M116.089 214.672C113.869 216.209 111.087 217.476 107.592 218.277C94.4944 221.298 89.4749 210.251 87.5907 202.666C88.9584 201.91 90.4692 201.446 92.0265 201.306C92.9771 201.194 93.9696 201.116 94.7948 201.08C96.2645 199.955 98.4567 195.353 98.9415 188.209L99.5576 188.374L109.88 191.194C109.88 191.194 109.406 194.469 109.174 197.564C108.996 199.987 108.68 201.393 109.14 201.958C109.946 202.133 110.716 203.156 110.716 203.156C112.872 206.814 114.671 210.671 116.089 214.672Z" fill="#FFB27D"/>
<path d="M109.88 191.191C109.88 191.191 109.407 194.464 109.177 197.561C103.328 196.976 100.621 191.42 99.5582 188.371L109.88 191.191Z" fill="#ED985F"/>
<path d="M111.618 194.264C111.618 194.264 97.7384 193.505 98.3469 184.881C98.9553 176.257 97.5749 170.357 106.463 170.48C115.352 170.604 116.839 174.014 117.337 176.942C117.835 179.869 115.253 194.241 111.618 194.264Z" fill="#FFB27D"/>
<path d="M83.6372 242.829C82.3843 236.434 78.2965 210.882 82.3843 202.66C83.8521 199.706 89.6092 199.434 95.9309 199.698C97.8969 200.966 105.392 205.753 108.468 205.155C108.502 205.155 108.561 205.136 108.641 205.115C110.09 204.753 110.352 202.829 109.141 201.952C109.141 201.952 112.563 202.559 116.446 203.281C118.64 203.694 124.562 206.751 124.562 206.751C124.562 206.751 121.581 212.129 117.184 213.985C117.931 220.66 116.819 223.603 109.881 239.032C104.017 252.064 110.672 263.799 110.672 263.799C110.672 263.799 76.1556 291.493 75.9636 277.393C75.8191 266.776 85.24 251.004 83.6372 242.829Z" fill="#739AF0"/>
<path d="M112.379 293.915C113.306 293.811 114.199 293.506 114.997 293.021C115.794 292.537 116.476 291.885 116.995 291.111C117.16 290.86 117.339 290.595 117.529 290.308C121.457 284.373 122.986 266.194 131.823 246.828C133.975 242.113 141.71 241.264 143.801 235.934C143.801 235.934 148.988 218.667 133.877 218.151C118.765 217.634 93.4055 266.217 92.9986 271.312C92.6298 276.247 83.0263 297.215 112.379 293.915Z" fill="#233862"/>
<path d="M172.442 293.517H150.935C150.935 293.517 150.13 290.101 151.543 287.763C152.792 285.703 152.313 284.538 151.387 282.83C152.526 283.322 153.76 283.555 155 283.511C156.072 283.45 157.205 282.965 158.2 282.388C159.126 283.443 163.088 287.925 164.328 288.813C165.742 289.815 172.009 289.454 172.442 293.517Z" fill="#172B4C"/>
<path d="M85.9043 209.359C85.9043 209.359 83.1037 234.786 101.259 240.099C119.415 245.413 124.567 216.714 109.908 214.648C95.2492 212.581 85.9043 209.359 85.9043 209.359Z" fill="#5486D6"/>
<path d="M144.305 223.143C145.6 232.833 150.657 263.418 159.578 278.34C162.455 283.15 152.332 285.847 152.277 285.834C150.92 285.479 148.665 283.319 147.615 282.38C140.371 275.866 125.669 257.42 125.669 242.63C125.669 235.42 125.543 221.646 130.802 218.152C134.032 216 143.79 219.295 144.305 223.143Z" fill="#233862"/>
<path d="M99.5561 293.516C99.5561 293.516 100.355 292.41 101.745 290.308C103.397 287.807 105.228 282.887 107.448 276.579C109.781 269.959 112.55 261.813 116.004 253.336C117.071 250.72 118.204 248.072 119.409 245.427C121.564 240.714 127.484 241.365 129.591 236.035C129.591 236.035 137.812 217.558 122.701 217.048C107.589 216.537 78.8757 266.475 77.2254 271.317C75.423 276.606 66.6085 298.59 99.5561 293.516Z" fill="#2B478B"/>
<path d="M156.654 293.517H135.147C135.147 293.517 134.342 290.101 135.755 287.763C137.004 285.703 136.525 284.538 135.599 282.83C136.738 283.322 137.972 283.555 139.212 283.511C140.284 283.45 141.417 282.965 142.412 282.388C143.337 283.443 147.3 287.925 148.539 288.813C149.954 289.815 156.221 289.454 156.654 293.517Z" fill="#233862"/>
<path d="M107.449 276.579C109.781 269.958 112.55 261.812 116.004 253.336C115.101 246.915 113.152 241.296 109.877 239.032C109.88 239.032 101.922 263.605 107.449 276.579Z" fill="#23407A"/>
<path d="M131.749 222.452C133.046 232.141 134.869 263.412 143.79 278.334C146.666 283.144 136.544 285.841 136.489 285.827C135.131 285.473 132.876 283.313 131.827 282.374C124.585 275.86 109.88 257.414 109.88 242.624C109.88 235.414 118.36 222.218 123.615 218.716C126.851 216.569 131.235 218.607 131.749 222.452Z" fill="#2B478B"/>
<path d="M158.381 197.044C158.381 197.044 159.482 194.251 161.486 194.431C163.49 194.611 181.704 197.044 181.704 197.044C181.704 197.044 179.584 197.551 178.784 198.942L170.384 223.649H148.834L158.381 197.044Z" fill="#EBF3FA"/>
<path d="M87.5912 202.661C87.5912 202.661 118.117 213.881 122.704 213.652C125.669 213.502 150.311 204.857 150.311 204.857L152.524 209.031C152.524 209.031 128.54 224.42 121.946 224.35C108.926 224.2 86.9619 216.225 84.4807 214.657C81.9995 213.09 80.3853 204.247 87.5912 202.661Z" fill="#FFBF94"/>
<path d="M150.312 204.856C150.312 204.856 152.525 201.46 154.726 201.359C156.928 201.258 160.734 202.858 162.037 203.109C163.339 203.359 167.043 204.556 165.94 206.355C164.837 208.154 159.733 208.555 157.531 208.154C155.329 207.754 152.525 209.033 152.525 209.033L150.312 204.856Z" fill="#FFBF94"/>
<path d="M154.127 201.463C154.127 201.463 157.629 199.859 158.631 199.565C159.633 199.271 159.432 199.565 159.131 200.514C158.831 201.463 157.029 202.364 157.029 202.662C157.029 202.96 154.127 201.463 154.127 201.463Z" fill="#FFBF94"/>
<path d="M114.225 189.308C114.225 189.308 112.913 188.79 109.221 189.087C109.221 189.087 109.411 190.526 112.141 190.668C113.683 190.748 114.225 189.308 114.225 189.308Z" fill="white"/>
<path d="M103.318 208.194C103.318 208.194 100.588 216.82 91.2109 218.782C91.2109 218.782 75.7268 214.021 83.4366 203.493C83.4366 203.493 91.0588 197.841 103.318 208.194Z" fill="#739AF0"/>
<path d="M181.704 197.044C181.704 197.044 183.727 197.816 182.196 200.437L162.506 197.816C162.506 197.816 163.191 194.78 161.645 194.448L181.704 197.044Z" fill="white"/>
<path d="M174.648 203.493C174.182 201.624 174.211 201.173 175.268 200.032C175.967 199.273 177.038 201.148 177.591 202.275C177.795 201.778 178.141 200.968 178.258 200.928C178.428 200.869 178.023 203.438 178.023 203.438C178.032 203.546 178.036 203.653 178.034 203.761C178.034 203.761 178.888 207.537 175.165 209.577L175.876 207.49C175.446 207.421 175.121 205.389 174.648 203.493Z" fill="#FFAD76"/>
<path d="M112.155 172.385C112.155 172.385 109.228 171.36 107.81 174.345C106.392 177.33 105.943 184.461 100.262 185.044C94.5808 185.626 94.3678 172.962 94.3678 172.962L108.576 167.358L116.084 172.089L112.155 172.385Z" fill="#233862"/>
<path d="M112.154 172.386C112.154 172.386 115.357 172.454 116.089 175.147C116.821 177.839 115.679 182.86 117.453 183.224C119.227 183.589 120.839 174.854 117.407 172.018C113.975 169.181 112.154 172.386 112.154 172.386Z" fill="#233862"/>
<path d="M363.65 125.632C363.65 125.632 360.442 124.42 360.077 123.583C359.712 122.746 358.655 122.382 357.379 121.799C356.104 121.217 355.337 120.162 355.155 120.308C354.972 120.454 354.936 121.181 355.448 121.727C355.959 122.274 358.11 126.091 358.935 126.53C359.76 126.968 363.65 125.632 363.65 125.632Z" fill="#FFB27D"/>
<path d="M30.8641 293.362H51.4798C52.5845 292.427 50.7193 290.302 48.761 290.159C47.913 290.095 46.8407 290.273 45.6144 290.539C45.3311 286.778 43.713 269.873 37.6061 270.552C30.7405 271.311 37.6061 277.998 39.5454 281.954C40.9847 284.886 42.5 289.089 43.194 291.063C42.6369 291.184 42.0532 291.302 41.4695 291.41C40.5588 288.622 37.1745 279.243 32.868 279.789C27.8125 280.429 29.845 284.19 33.4384 286.431C36.066 288.072 39.2944 290.406 40.8288 291.533C39.4973 291.764 38.1474 291.872 36.7961 291.856C33.2559 291.765 31.5314 292.803 30.8641 293.362Z" fill="#82B378"/>
<path d="M492.875 293.779C492.875 293.779 500.71 272.301 506.213 274.132C511.715 275.963 492.875 293.779 492.875 293.779Z" fill="#82B378"/>
<path d="M495.87 293.78C496.537 293.78 509.042 280.829 509.875 284.22C510.708 287.611 495.87 293.78 495.87 293.78Z" fill="#82B378"/>
<path d="M482.538 293.78C482.538 293.78 487.71 289.047 494.258 290.279C500.806 291.51 503.601 292.861 507.713 291.928C511.826 290.994 513.933 293.78 513.933 293.78H482.538Z" fill="#82B378"/>
<path d="M322.985 265.897H363.719C365.993 265.897 367.837 267.738 367.837 270.007V281.095C367.837 283.365 365.993 285.205 363.719 285.205H322.985C320.711 285.205 318.867 283.365 318.867 281.095V270.007C318.867 267.738 320.711 265.897 322.985 265.897Z" fill="#FCECDB"/>
<path d="M331.271 270.696H361.952C362.117 270.696 362.275 270.631 362.392 270.514C362.509 270.398 362.575 270.24 362.576 270.076C362.575 269.911 362.509 269.753 362.392 269.636C362.276 269.519 362.117 269.454 361.952 269.453H331.271C331.189 269.453 331.107 269.47 331.032 269.501C330.956 269.533 330.887 269.579 330.829 269.637C330.771 269.695 330.725 269.764 330.694 269.84C330.663 269.916 330.647 269.997 330.647 270.079C330.649 270.243 330.716 270.4 330.832 270.515C330.949 270.631 331.107 270.696 331.271 270.696Z" fill="#EFCBAB"/>
<path d="M356.505 273.38H361.946C362.111 273.379 362.27 273.313 362.387 273.197C362.503 273.08 362.569 272.922 362.57 272.757C362.569 272.592 362.503 272.434 362.387 272.318C362.27 272.201 362.111 272.135 361.946 272.135H356.505C356.34 272.136 356.182 272.202 356.065 272.318C355.949 272.435 355.883 272.593 355.883 272.757C355.883 272.922 355.949 273.079 356.065 273.196C356.182 273.313 356.34 273.379 356.505 273.38Z" fill="#EFCBAB"/>
<path d="M339.369 273.38H354.36C354.525 273.379 354.684 273.313 354.801 273.197C354.918 273.08 354.983 272.922 354.984 272.757C354.983 272.592 354.918 272.434 354.801 272.318C354.684 272.201 354.525 272.135 354.36 272.135H339.369C339.204 272.136 339.046 272.202 338.929 272.318C338.813 272.435 338.747 272.593 338.747 272.757C338.747 272.922 338.813 273.079 338.929 273.196C339.046 273.313 339.204 273.379 339.369 273.38Z" fill="#EFCBAB"/>
<path d="M331.271 278.345H361.952C362.117 278.345 362.276 278.279 362.392 278.163C362.509 278.046 362.575 277.888 362.576 277.723C362.575 277.558 362.509 277.4 362.392 277.283C362.276 277.167 362.117 277.101 361.952 277.101H331.271C331.106 277.101 330.947 277.167 330.83 277.283C330.714 277.4 330.648 277.558 330.647 277.723C330.648 277.888 330.714 278.046 330.83 278.163C330.947 278.279 331.106 278.345 331.271 278.345Z" fill="#EFCBAB"/>
<path d="M350.816 281.026H361.952C362.117 281.026 362.276 280.96 362.392 280.843C362.509 280.727 362.575 280.569 362.576 280.404C362.575 280.239 362.509 280.081 362.392 279.964C362.276 279.847 362.117 279.782 361.952 279.781H350.816C350.651 279.782 350.493 279.848 350.377 279.965C350.261 280.081 350.195 280.239 350.195 280.404C350.195 280.568 350.261 280.726 350.377 280.843C350.493 280.959 350.651 281.025 350.816 281.026Z" fill="#EFCBAB"/>
<path d="M337.268 281.026H348.404C348.569 281.025 348.726 280.959 348.843 280.843C348.959 280.726 349.025 280.568 349.025 280.404C349.025 280.239 348.959 280.081 348.843 279.965C348.726 279.848 348.569 279.782 348.404 279.781H337.268C337.102 279.782 336.944 279.847 336.827 279.964C336.71 280.081 336.645 280.239 336.644 280.404C336.645 280.569 336.71 280.727 336.827 280.843C336.944 280.96 337.102 281.026 337.268 281.026Z" fill="#EFCBAB"/>
</g>
<defs>
<clipPath id="clip0">
<rect width="550" height="295" fill="#aaa" transform="matrix(-1 0 0 1 550 0)"/>
</clipPath>
</defs>
</svg>
